<?xml version="1.0" encoding="UTF-8" standalone="no"?>
<!DOCTYPE svg PUBLIC "-//W3C//DTD SVG 1.1//EN"
 "http://www.w3.org/Graphics/SVG/1.1/DTD/svg11.dtd">
<!-- Generated by graphviz version 11.0.0 (20240428.1522)
 -->
<!-- Pages: 1 -->
<svg width="2678pt" height="1068pt"
 viewBox="0.00 0.00 2678.43 1067.85" xmlns="http://www.w3.org/2000/svg" xmlns:xlink="http://www.w3.org/1999/xlink">
<g id="graph0" class="graph" transform="scale(1 1) rotate(0) translate(4 1063.85)">
<polygon fill="white" stroke="none" points="-4,4 -4,-1063.85 2674.43,-1063.85 2674.43,4 -4,4"/>
<g id="clust1" class="cluster">
<title>cluster&#45;nid&#45;02</title>
<polygon fill="none" stroke="#cccccc" points="810.85,-977.85 810.85,-1051.85 1272.73,-1051.85 1272.73,-977.85 810.85,-977.85"/>
</g>
<g id="clust2" class="cluster">
<title>cluster&#45;nid&#45;03</title>
<polygon fill="none" stroke="#cccccc" points="810.85,-895.85 810.85,-969.85 1272.73,-969.85 1272.73,-895.85 810.85,-895.85"/>
</g>
<g id="clust5" class="cluster">
<title>cluster&#45;nid&#45;06</title>
<polygon fill="none" stroke="#cccccc" points="8,-944.85 8,-1018.85 153.75,-1018.85 153.75,-944.85 8,-944.85"/>
</g>
<g id="clust7" class="cluster">
<title>cluster&#45;nid&#45;08</title>
<polygon fill="none" stroke="#cccccc" points="1928.44,-369.85 1928.44,-443.85 2346.26,-443.85 2346.26,-369.85 1928.44,-369.85"/>
</g>
<g id="clust8" class="cluster">
<title>cluster&#45;nid&#45;09</title>
<polygon fill="none" stroke="#cccccc" points="1928.44,-227.85 1928.44,-301.85 2346.26,-301.85 2346.26,-227.85 1928.44,-227.85"/>
</g>
<g id="clust10" class="cluster">
<title>cluster&#45;nid&#45;0b</title>
<polygon fill="none" stroke="#cccccc" points="761.25,-409.85 761.25,-741.85 1286.96,-741.85 1286.96,-409.85 761.25,-409.85"/>
</g>
<g id="clust11" class="cluster">
<title>cluster&#45;nid&#45;0c</title>
<polygon fill="none" stroke="#cccccc" points="1527.61,-703.85 1527.61,-834.85 2012.68,-834.85 2012.68,-703.85 1527.61,-703.85"/>
</g>
<g id="clust12" class="cluster">
<title>cluster&#45;nid&#45;0d</title>
<polygon fill="none" stroke="#cccccc" points="1527.61,-564.85 1527.61,-695.85 2012.68,-695.85 2012.68,-564.85 1527.61,-564.85"/>
</g>
<g id="clust14" class="cluster">
<title>cluster&#45;nid&#45;0f</title>
<polygon fill="none" stroke="#cccccc" points="1527.61,-904.85 1527.61,-1035.85 2011.45,-1035.85 2011.45,-904.85 1527.61,-904.85"/>
</g>
<g id="clust18" class="cluster">
<title>cluster&#45;nid&#45;12&#45;out</title>
<polygon fill="none" stroke="#cccccc" points="1159.11,-35.85 1159.11,-125.85 1316.36,-125.85 1316.36,-35.85 1159.11,-35.85"/>
</g>
<g id="clust20" class="cluster">
<title>cluster&#45;nid&#45;13&#45;out</title>
<polygon fill="none" stroke="#cccccc" points="1147.86,-165.85 1147.86,-255.85 1327.61,-255.85 1327.61,-165.85 1147.86,-165.85"/>
</g>
<g id="clust21" class="cluster">
<title>cluster&#45;nid&#45;14&#45;in</title>
<polygon fill="none" stroke="#cccccc" points="2213.43,-779.85 2213.43,-869.85 2391.68,-869.85 2391.68,-779.85 2213.43,-779.85"/>
</g>
<g id="clust23" class="cluster">
<title>cluster&#45;nid&#45;15&#45;in</title>
<polygon fill="none" stroke="#cccccc" points="2212.68,-681.85 2212.68,-771.85 2392.43,-771.85 2392.43,-681.85 2212.68,-681.85"/>
</g>
<g id="clust25" class="cluster">
<title>cluster&#45;nid&#45;16&#45;in</title>
<polygon fill="none" stroke="#cccccc" points="2214.18,-583.85 2214.18,-673.85 2390.93,-673.85 2390.93,-583.85 2214.18,-583.85"/>
</g>
<g id="clust28" class="cluster">
<title>cluster&#45;nid&#45;18&#45;in</title>
<polygon fill="none" stroke="#cccccc" points="2214.18,-485.85 2214.18,-575.85 2662.43,-575.85 2662.43,-485.85 2214.18,-485.85"/>
</g>
<g id="clust29" class="cluster">
<title>cluster&#45;nid&#45;18&#45;out</title>
<polygon fill="none" stroke="#cccccc" points="45.88,-705.85 45.88,-795.85 545.88,-795.85 545.88,-705.85 45.88,-705.85"/>
</g>
<g id="clust31" class="cluster">
<title>cluster&#45;nid&#45;19&#45;out</title>
<polygon fill="none" stroke="#cccccc" points="369.13,-170.85 369.13,-260.85 545.88,-260.85 545.88,-170.85 369.13,-170.85"/>
</g>
<g id="clust33" class="cluster">
<title>cluster&#45;nid&#45;1a&#45;out</title>
<polygon fill="none" stroke="#cccccc" points="377,-366.85 377,-456.85 538,-456.85 538,-366.85 377,-366.85"/>
</g>
<g id="clust34" class="cluster">
<title>cluster&#45;nid&#45;1b&#45;in</title>
<polygon fill="none" stroke="#cccccc" points="2214.18,-877.85 2214.18,-967.85 2662.43,-967.85 2662.43,-877.85 2214.18,-877.85"/>
</g>
<g id="clust35" class="cluster">
<title>cluster&#45;nid&#45;1b&#45;out</title>
<polygon fill="none" stroke="#cccccc" points="45.88,-268.85 45.88,-358.85 545.88,-358.85 545.88,-268.85 45.88,-268.85"/>
</g>
<g id="clust38" class="cluster">
<title>cluster&#45;nid&#45;1d&#45;out</title>
<polygon fill="none" stroke="#cccccc" points="353.75,-803.85 353.75,-893.85 561.25,-893.85 561.25,-803.85 353.75,-803.85"/>
</g>
<g id="clust39" class="cluster">
<title>cluster&#45;nid&#45;1e&#45;in</title>
<polygon fill="none" stroke="#cccccc" points="369.13,-936.85 369.13,-1026.85 545.88,-1026.85 545.88,-936.85 369.13,-936.85"/>
</g>
<g id="clust44" class="cluster">
<title>cluster&#45;nid&#45;22</title>
<polygon fill="none" stroke="#cccccc" points="1560.55,-215.85 1560.55,-313.85 1681.26,-313.85 1681.26,-215.85 1560.55,-215.85"/>
</g>
<g id="clust45" class="cluster">
<title>cluster&#45;nid&#45;23</title>
<polygon fill="none" stroke="#cccccc" points="1560.55,-357.85 1560.55,-455.85 1681.26,-455.85 1681.26,-357.85 1560.55,-357.85"/>
</g>
<!-- nid&#45;02 -->
<g id="node1" class="node">
<title>nid&#45;02</title>
<ellipse fill="none" stroke="blue" cx="854.56" cy="-1014.85" rx="35.71" ry="28.99"/>
<text text-anchor="middle" x="854.56" y="-1018.05" font-family="Times,serif" font-size="14.00">2</text>
<text text-anchor="middle" x="854.56" y="-1001.55" font-family="Times,serif" font-size="14.00">Stereo</text>
</g>
<!-- nid&#45;02&#45;ampout -->
<g id="node2" class="node">
<title>nid&#45;02&#45;ampout</title>
<polygon fill="none" stroke="#0000ff" points="1264.73,-1008.85 1224.23,-1026.85 1224.23,-990.85 1264.73,-1008.85"/>
</g>
<!-- nid&#45;02&#45;&gt;nid&#45;02&#45;ampout -->
<g id="edge1" class="edge">
<title>nid&#45;02&#45;&gt;nid&#45;02&#45;ampout</title>
<path fill="none" stroke="#0000ff" d="M890.73,-1014.3C969.35,-1013.06 1157.13,-1010.1 1217.61,-1009.15"/>
<polygon fill="#0000ff" stroke="#0000ff" points="1217.54,-1010.9 1222.51,-1009.08 1217.48,-1007.4 1217.54,-1010.9"/>
</g>
<!-- nid&#45;0c&#45;ampin&#45;2 -->
<g id="node24" class="node">
<title>nid&#45;0c&#45;ampin&#45;2</title>
<polygon fill="none" stroke="#0000ff" points="1706.21,-802.85 1578.26,-827.35 1578.26,-778.35 1706.21,-802.85"/>
<text text-anchor="middle" x="1620.91" y="-797.8" font-family="Times,serif" font-size="14.00">0 (2)</text>
</g>
<!-- nid&#45;02&#45;ampout&#45;&gt;nid&#45;0c&#45;ampin&#45;2 -->
<g id="edge19" class="edge">
<title>nid&#45;02&#45;ampout&#45;&gt;nid&#45;0c&#45;ampin&#45;2</title>
<path fill="none" stroke="#333333" d="M1254.13,-1003.6C1272.1,-997.29 1302.55,-986.03 1327.61,-973.85 1417.59,-930.14 1517.09,-868.99 1573.7,-832.89"/>
<polygon fill="#333333" stroke="#333333" points="1575.27,-836.04 1581.81,-827.7 1571.5,-830.15 1575.27,-836.04"/>
</g>
<!-- nid&#45;0f&#45;ampin&#45;2 -->
<g id="node30" class="node">
<title>nid&#45;0f&#45;ampin&#45;2</title>
<polygon fill="none" stroke="#c8c8c8" points="1706.21,-1003.85 1578.26,-1028.35 1578.26,-979.35 1706.21,-1003.85"/>
<text text-anchor="middle" x="1620.91" y="-998.8" font-family="Times,serif" font-size="14.00">0 (2)</text>
</g>
<!-- nid&#45;02&#45;ampout&#45;&gt;nid&#45;0f&#45;ampin&#45;2 -->
<g id="edge27" class="edge">
<title>nid&#45;02&#45;ampout&#45;&gt;nid&#45;0f&#45;ampin&#45;2</title>
<path fill="none" stroke="#333333" d="M1264.93,-1008.51C1326.88,-1007.7 1483.37,-1005.64 1566.35,-1004.55"/>
<polygon fill="#333333" stroke="#333333" points="1566.32,-1008.05 1576.28,-1004.42 1566.23,-1001.06 1566.32,-1008.05"/>
</g>
<!-- nid&#45;03 -->
<g id="node3" class="node">
<title>nid&#45;03</title>
<ellipse fill="none" stroke="blue" cx="854.56" cy="-932.85" rx="35.71" ry="28.99"/>
<text text-anchor="middle" x="854.56" y="-936.05" font-family="Times,serif" font-size="14.00">3</text>
<text text-anchor="middle" x="854.56" y="-919.55" font-family="Times,serif" font-size="14.00">Stereo</text>
</g>
<!-- nid&#45;03&#45;ampout -->
<g id="node4" class="node">
<title>nid&#45;03&#45;ampout</title>
<polygon fill="none" stroke="#0000ff" points="1264.73,-932.85 1224.23,-950.85 1224.23,-914.85 1264.73,-932.85"/>
</g>
<!-- nid&#45;03&#45;&gt;nid&#45;03&#45;ampout -->
<g id="edge2" class="edge">
<title>nid&#45;03&#45;&gt;nid&#45;03&#45;ampout</title>
<path fill="none" stroke="#0000ff" d="M890.73,-932.85C969.35,-932.85 1157.13,-932.85 1217.61,-932.85"/>
<polygon fill="#0000ff" stroke="#0000ff" points="1217.51,-934.6 1222.51,-932.85 1217.51,-931.1 1217.51,-934.6"/>
</g>
<!-- nid&#45;0d&#45;ampin&#45;3 -->
<g id="node27" class="node">
<title>nid&#45;0d&#45;ampin&#45;3</title>
<polygon fill="none" stroke="#0000ff" points="1706.21,-663.85 1578.26,-688.35 1578.26,-639.35 1706.21,-663.85"/>
<text text-anchor="middle" x="1620.91" y="-658.8" font-family="Times,serif" font-size="14.00">0 (3)</text>
</g>
<!-- nid&#45;03&#45;ampout&#45;&gt;nid&#45;0d&#45;ampin&#45;3 -->
<g id="edge23" class="edge">
<title>nid&#45;03&#45;ampout&#45;&gt;nid&#45;0d&#45;ampin&#45;3</title>
<path fill="none" stroke="#333333" d="M1253.33,-927.42C1271.58,-920.27 1303.36,-906.62 1327.61,-889.85 1428.44,-820.1 1424.11,-765.58 1527.61,-699.85 1539.75,-692.14 1553.81,-685.62 1567.24,-680.35"/>
<polygon fill="#333333" stroke="#333333" points="1568.27,-683.7 1576.41,-676.91 1565.82,-677.14 1568.27,-683.7"/>
</g>
<!-- nid&#45;0f&#45;ampin&#45;3 -->
<g id="node31" class="node">
<title>nid&#45;0f&#45;ampin&#45;3</title>
<polygon fill="none" stroke="#0000ff" points="1706.21,-936.85 1578.26,-961.35 1578.26,-912.35 1706.21,-936.85"/>
<text text-anchor="middle" x="1620.91" y="-931.8" font-family="Times,serif" font-size="14.00">1 (3)</text>
</g>
<!-- nid&#45;03&#45;ampout&#45;&gt;nid&#45;0f&#45;ampin&#45;3 -->
<g id="edge28" class="edge">
<title>nid&#45;03&#45;ampout&#45;&gt;nid&#45;0f&#45;ampin&#45;3</title>
<path fill="none" stroke="#333333" d="M1265.23,-933.13C1327.41,-933.78 1483.65,-935.42 1566.46,-936.29"/>
<polygon fill="#333333" stroke="#333333" points="1566.33,-939.79 1576.37,-936.39 1566.4,-932.79 1566.33,-939.79"/>
</g>
<!-- nid&#45;06 -->
<g id="node5" class="node">
<title>nid&#45;06</title>
<ellipse fill="none" stroke="blue" cx="80.88" cy="-981.85" rx="64.88" ry="28.99"/>
<text text-anchor="middle" x="80.88" y="-985.05" font-family="Times,serif" font-size="14.00">6</text>
<text text-anchor="middle" x="80.88" y="-968.55" font-family="Times,serif" font-size="14.00">Stereo Digital</text>
</g>
<!-- nid&#45;1e&#45;in -->
<g id="node43" class="node">
<title>nid&#45;1e&#45;in</title>
<polygon fill="none" stroke="green" points="537.88,-1018.85 377.13,-1018.85 377.13,-944.85 537.88,-944.85 537.88,-1018.85"/>
<text text-anchor="middle" x="457.5" y="-1001.55" font-family="Times,serif" font-size="14.00">30</text>
<text text-anchor="middle" x="457.5" y="-985.05" font-family="Times,serif" font-size="14.00">[N/A] Speaker at Ext Rear</text>
<text text-anchor="middle" x="457.5" y="-968.55" font-family="Times,serif" font-size="14.00">Stereo Digital</text>
<text text-anchor="middle" x="457.5" y="-952.05" font-family="Times,serif" font-size="14.00">OUT Detect</text>
</g>
<!-- nid&#45;06&#45;&gt;nid&#45;1e&#45;in -->
<g id="edge43" class="edge">
<title>nid&#45;06&#45;&gt;nid&#45;1e&#45;in</title>
<path fill="none" stroke="#333333" d="M145.85,-981.85C206.33,-981.85 297.68,-981.85 365.69,-981.85"/>
<polygon fill="#333333" stroke="#333333" points="365.31,-985.35 375.31,-981.85 365.31,-978.35 365.31,-985.35"/>
</g>
<!-- nid&#45;08 -->
<g id="node6" class="node">
<title>nid&#45;08</title>
<ellipse fill="none" stroke="red" cx="2302.55" cy="-406.85" rx="35.71" ry="28.99"/>
<text text-anchor="middle" x="2302.55" y="-410.05" font-family="Times,serif" font-size="14.00">8</text>
<text text-anchor="middle" x="2302.55" y="-393.55" font-family="Times,serif" font-size="14.00">Stereo</text>
</g>
<!-- nid&#45;08&#45;ampin -->
<g id="node7" class="node">
<title>nid&#45;08&#45;ampin</title>
<polygon fill="none" stroke="#c8c8c8" points="1990.44,-406.85 1949.94,-424.85 1949.94,-388.85 1990.44,-406.85"/>
</g>
<!-- nid&#45;08&#45;ampin&#45;&gt;nid&#45;08 -->
<g id="edge3" class="edge">
<title>nid&#45;08&#45;ampin&#45;&gt;nid&#45;08</title>
<path fill="none" stroke="#c8c8c8" d="M1991.46,-406.85C2050.3,-406.85 2190.37,-406.85 2260.32,-406.85"/>
<polygon fill="#c8c8c8" stroke="#c8c8c8" points="2259.95,-408.6 2264.95,-406.85 2259.95,-405.1 2259.95,-408.6"/>
</g>
<!-- nid&#45;23 -->
<g id="node8" class="node">
<title>nid&#45;23</title>
<polygon fill="none" stroke="black" points="1673.26,-447.85 1589.98,-447.85 1568.55,-365.85 1651.84,-365.85 1673.26,-447.85"/>
<text text-anchor="middle" x="1620.91" y="-410.05" font-family="Times,serif" font-size="14.00">35</text>
<text text-anchor="middle" x="1620.91" y="-393.55" font-family="Times,serif" font-size="14.00">Stereo</text>
</g>
<!-- nid&#45;23&#45;&gt;nid&#45;08&#45;ampin -->
<g id="edge4" class="edge">
<title>nid&#45;23&#45;&gt;nid&#45;08&#45;ampin</title>
<path fill="none" stroke="#333333" d="M1662.98,-406.85C1734.69,-406.85 1880.55,-406.85 1938.21,-406.85"/>
<polygon fill="#333333" stroke="#333333" points="1938.19,-410.35 1948.19,-406.85 1938.19,-403.35 1938.19,-410.35"/>
</g>
<!-- nid&#45;09 -->
<g id="node9" class="node">
<title>nid&#45;09</title>
<ellipse fill="none" stroke="red" cx="2302.55" cy="-264.85" rx="35.71" ry="28.99"/>
<text text-anchor="middle" x="2302.55" y="-268.05" font-family="Times,serif" font-size="14.00">9</text>
<text text-anchor="middle" x="2302.55" y="-251.55" font-family="Times,serif" font-size="14.00">Stereo</text>
</g>
<!-- nid&#45;09&#45;ampin -->
<g id="node10" class="node">
<title>nid&#45;09&#45;ampin</title>
<polygon fill="none" stroke="#c8c8c8" points="1990.44,-264.85 1949.94,-282.85 1949.94,-246.85 1990.44,-264.85"/>
</g>
<!-- nid&#45;09&#45;ampin&#45;&gt;nid&#45;09 -->
<g id="edge5" class="edge">
<title>nid&#45;09&#45;ampin&#45;&gt;nid&#45;09</title>
<path fill="none" stroke="#c8c8c8" d="M1991.46,-264.85C2050.3,-264.85 2190.37,-264.85 2260.32,-264.85"/>
<polygon fill="#c8c8c8" stroke="#c8c8c8" points="2259.95,-266.6 2264.95,-264.85 2259.95,-263.1 2259.95,-266.6"/>
</g>
<!-- nid&#45;22 -->
<g id="node11" class="node">
<title>nid&#45;22</title>
<polygon fill="none" stroke="black" points="1673.26,-305.85 1589.98,-305.85 1568.55,-223.85 1651.84,-223.85 1673.26,-305.85"/>
<text text-anchor="middle" x="1620.91" y="-268.05" font-family="Times,serif" font-size="14.00">34</text>
<text text-anchor="middle" x="1620.91" y="-251.55" font-family="Times,serif" font-size="14.00">Stereo</text>
</g>
<!-- nid&#45;22&#45;&gt;nid&#45;09&#45;ampin -->
<g id="edge6" class="edge">
<title>nid&#45;22&#45;&gt;nid&#45;09&#45;ampin</title>
<path fill="none" stroke="#333333" d="M1662.98,-264.85C1734.69,-264.85 1880.55,-264.85 1938.21,-264.85"/>
<polygon fill="#333333" stroke="#333333" points="1938.19,-268.35 1948.19,-264.85 1938.19,-261.35 1938.19,-268.35"/>
</g>
<!-- nid&#45;0b -->
<g id="node12" class="node">
<title>nid&#45;0b</title>
<polygon fill="none" stroke="black" points="1278.96,-575.85 1258.35,-609.33 1217.12,-609.33 1196.5,-575.85 1217.12,-542.38 1258.35,-542.38 1278.96,-575.85"/>
<text text-anchor="middle" x="1237.73" y="-579.05" font-family="Times,serif" font-size="14.00">11</text>
<text text-anchor="middle" x="1237.73" y="-562.55" font-family="Times,serif" font-size="14.00">Stereo</text>
</g>
<!-- nid&#45;0b&#45;&gt;nid&#45;23 -->
<g id="edge57" class="edge">
<title>nid&#45;0b&#45;&gt;nid&#45;23</title>
<path fill="none" stroke="gray" stroke-dasharray="5,2" d="M1270.58,-561.73C1337.79,-531.93 1494.41,-462.49 1573.07,-427.62"/>
<polygon fill="gray" stroke="gray" points="1574.07,-431 1581.8,-423.75 1571.23,-424.6 1574.07,-431"/>
</g>
<!-- nid&#45;0b&#45;&gt;nid&#45;22 -->
<g id="edge49" class="edge">
<title>nid&#45;0b&#45;&gt;nid&#45;22</title>
<path fill="none" stroke="gray" stroke-dasharray="5,2" d="M1265.84,-553.73C1331.35,-500.29 1498.66,-363.77 1577.54,-299.42"/>
<polygon fill="gray" stroke="gray" points="1579.55,-302.3 1585.09,-293.26 1575.13,-296.87 1579.55,-302.3"/>
</g>
<!-- nid&#45;0c&#45;ampin&#45;11 -->
<g id="node25" class="node">
<title>nid&#45;0c&#45;ampin&#45;11</title>
<polygon fill="none" stroke="#c8c8c8" points="1706.21,-735.85 1578.26,-760.35 1578.26,-711.35 1706.21,-735.85"/>
<text text-anchor="middle" x="1620.91" y="-730.8" font-family="Times,serif" font-size="14.00">1 (11)</text>
</g>
<!-- nid&#45;0b&#45;&gt;nid&#45;0c&#45;ampin&#45;11 -->
<g id="edge20" class="edge">
<title>nid&#45;0b&#45;&gt;nid&#45;0c&#45;ampin&#45;11</title>
<path fill="none" stroke="#333333" d="M1270.64,-589.97C1323.74,-613.35 1433.66,-661.38 1527.61,-699.85 1540.42,-705.1 1554.29,-710.6 1567.3,-715.68"/>
<polygon fill="#333333" stroke="#333333" points="1565.98,-718.93 1576.57,-719.29 1568.52,-712.4 1565.98,-718.93"/>
</g>
<!-- nid&#45;0d&#45;ampin&#45;11 -->
<g id="node28" class="node">
<title>nid&#45;0d&#45;ampin&#45;11</title>
<polygon fill="none" stroke="#c8c8c8" points="1706.21,-596.85 1578.26,-621.35 1578.26,-572.35 1706.21,-596.85"/>
<text text-anchor="middle" x="1620.91" y="-591.8" font-family="Times,serif" font-size="14.00">1 (11)</text>
</g>
<!-- nid&#45;0b&#45;&gt;nid&#45;0d&#45;ampin&#45;11 -->
<g id="edge24" class="edge">
<title>nid&#45;0b&#45;&gt;nid&#45;0d&#45;ampin&#45;11</title>
<path fill="none" stroke="#333333" d="M1278.09,-578.02C1346.84,-581.81 1488.87,-589.63 1566.46,-593.91"/>
<polygon fill="#333333" stroke="#333333" points="1566.19,-597.4 1576.37,-594.45 1566.57,-590.41 1566.19,-597.4"/>
</g>
<!-- nid&#45;0b&#45;ampin&#45;24 -->
<g id="node13" class="node">
<title>nid&#45;0b&#45;ampin&#45;24</title>
<polygon fill="none" stroke="#c8c8c8" points="939.86,-642.85 811.9,-667.35 811.9,-618.35 939.86,-642.85"/>
<text text-anchor="middle" x="854.56" y="-637.8" font-family="Times,serif" font-size="14.00">0 (24)</text>
</g>
<!-- nid&#45;0b&#45;ampin&#45;24&#45;&gt;nid&#45;0b -->
<g id="edge7" class="edge">
<title>nid&#45;0b&#45;ampin&#45;24&#45;&gt;nid&#45;0b</title>
<path fill="none" stroke="#c8c8c8" d="M900.78,-634.9C974.86,-621.88 1121.09,-596.18 1193.71,-583.41"/>
<polygon fill="#c8c8c8" stroke="#c8c8c8" points="1193.97,-585.14 1198.59,-582.56 1193.36,-581.7 1193.97,-585.14"/>
</g>
<!-- nid&#45;0b&#45;ampin&#45;25 -->
<g id="node14" class="node">
<title>nid&#45;0b&#45;ampin&#45;25</title>
<polygon fill="none" stroke="#c8c8c8" points="939.86,-441.85 811.9,-466.35 811.9,-417.35 939.86,-441.85"/>
<text text-anchor="middle" x="854.56" y="-436.8" font-family="Times,serif" font-size="14.00">1 (25)</text>
</g>
<!-- nid&#45;0b&#45;ampin&#45;25&#45;&gt;nid&#45;0b -->
<g id="edge8" class="edge">
<title>nid&#45;0b&#45;ampin&#45;25&#45;&gt;nid&#45;0b</title>
<path fill="none" stroke="#c8c8c8" d="M886.1,-452.59C954.8,-476.74 1121.41,-535.31 1197.57,-562.08"/>
<polygon fill="#c8c8c8" stroke="#c8c8c8" points="1196.61,-563.6 1201.91,-563.61 1197.77,-560.3 1196.61,-563.6"/>
</g>
<!-- nid&#45;0b&#45;ampin&#45;26 -->
<g id="node15" class="node">
<title>nid&#45;0b&#45;ampin&#45;26</title>
<polygon fill="none" stroke="#c8c8c8" points="938.83,-575.85 812.42,-600.35 812.42,-551.35 938.83,-575.85"/>
<text text-anchor="middle" x="854.56" y="-570.8" font-family="Times,serif" font-size="14.00">2 (26)</text>
</g>
<!-- nid&#45;0b&#45;ampin&#45;26&#45;&gt;nid&#45;0b -->
<g id="edge9" class="edge">
<title>nid&#45;0b&#45;ampin&#45;26&#45;&gt;nid&#45;0b</title>
<path fill="none" stroke="#c8c8c8" d="M941.1,-575.85C1017.92,-575.85 1127.85,-575.85 1189.73,-575.85"/>
<polygon fill="#c8c8c8" stroke="#c8c8c8" points="1189.42,-577.6 1194.42,-575.85 1189.42,-574.1 1189.42,-577.6"/>
</g>
<!-- nid&#45;0b&#45;ampin&#45;27 -->
<g id="node16" class="node">
<title>nid&#45;0b&#45;ampin&#45;27</title>
<polygon fill="none" stroke="#c8c8c8" points="939.86,-508.85 811.9,-533.35 811.9,-484.35 939.86,-508.85"/>
<text text-anchor="middle" x="854.56" y="-503.8" font-family="Times,serif" font-size="14.00">3 (27)</text>
</g>
<!-- nid&#45;0b&#45;ampin&#45;27&#45;&gt;nid&#45;0b -->
<g id="edge10" class="edge">
<title>nid&#45;0b&#45;ampin&#45;27&#45;&gt;nid&#45;0b</title>
<path fill="none" stroke="#c8c8c8" d="M900.78,-516.8C974.86,-529.82 1121.09,-555.52 1193.71,-568.29"/>
<polygon fill="#c8c8c8" stroke="#c8c8c8" points="1193.36,-570.01 1198.59,-569.15 1193.97,-566.56 1193.36,-570.01"/>
</g>
<!-- nid&#45;0b&#45;ampin&#45;29 -->
<g id="node17" class="node">
<title>nid&#45;0b&#45;ampin&#45;29</title>
<polygon fill="none" stroke="#c8c8c8" points="939.86,-709.85 811.9,-734.35 811.9,-685.35 939.86,-709.85"/>
<text text-anchor="middle" x="854.56" y="-704.8" font-family="Times,serif" font-size="14.00">4 (29)</text>
</g>
<!-- nid&#45;0b&#45;ampin&#45;29&#45;&gt;nid&#45;0b -->
<g id="edge11" class="edge">
<title>nid&#45;0b&#45;ampin&#45;29&#45;&gt;nid&#45;0b</title>
<path fill="none" stroke="#c8c8c8" d="M886.1,-699.11C954.8,-674.96 1121.41,-616.39 1197.57,-589.62"/>
<polygon fill="#c8c8c8" stroke="#c8c8c8" points="1197.77,-591.4 1201.91,-588.09 1196.61,-588.1 1197.77,-591.4"/>
</g>
<!-- nid&#45;18&#45;out -->
<g id="node18" class="node">
<title>nid&#45;18&#45;out</title>
<polygon fill="none" stroke="green" points="537.88,-787.85 377.13,-787.85 377.13,-713.85 537.88,-713.85 537.88,-787.85"/>
<text text-anchor="middle" x="457.5" y="-770.55" font-family="Times,serif" font-size="14.00">24</text>
<text text-anchor="middle" x="457.5" y="-754.05" font-family="Times,serif" font-size="14.00">[N/A] Speaker at Ext Rear</text>
<text text-anchor="middle" x="457.5" y="-737.55" font-family="Times,serif" font-size="14.00">Stereo</text>
<text text-anchor="middle" x="457.5" y="-721.05" font-family="Times,serif" font-size="14.00">IN OUT Detect</text>
</g>
<!-- nid&#45;18&#45;out&#45;&gt;nid&#45;23 -->
<g id="edge52" class="edge">
<title>nid&#45;18&#45;out&#45;&gt;nid&#45;23</title>
<path fill="none" stroke="#333333" d="M538.19,-776.35C697.52,-822.52 1062.79,-903.92 1327.61,-775.85 1398.31,-741.66 1527.61,-550.82 1587.67,-457.82"/>
<polygon fill="#333333" stroke="#333333" points="1590.49,-459.9 1592.96,-449.59 1584.6,-456.11 1590.49,-459.9"/>
</g>
<!-- nid&#45;18&#45;out&#45;&gt;nid&#45;22 -->
<g id="edge44" class="edge">
<title>nid&#45;18&#45;out&#45;&gt;nid&#45;22</title>
<path fill="none" stroke="gray" stroke-dasharray="5,2" d="M538.18,-755.06C740.27,-765.07 1261.54,-786.58 1327.61,-745.85 1494.11,-643.22 1411.17,-511 1527.61,-353.85 1542.07,-334.33 1560.98,-315.28 1577.91,-299.84"/>
<polygon fill="gray" stroke="gray" points="1579.79,-302.86 1584.91,-293.58 1575.12,-297.64 1579.79,-302.86"/>
</g>
<!-- nid&#45;18&#45;out&#45;&gt;nid&#45;0b&#45;ampin&#45;24 -->
<g id="edge12" class="edge">
<title>nid&#45;18&#45;out&#45;&gt;nid&#45;0b&#45;ampin&#45;24</title>
<path fill="none" stroke="#333333" d="M537.97,-729.13C616.2,-707.74 733.44,-675.69 800.82,-657.27"/>
<polygon fill="#333333" stroke="#333333" points="801.41,-660.74 810.13,-654.72 799.56,-653.98 801.41,-660.74"/>
</g>
<!-- nid&#45;19&#45;out -->
<g id="node19" class="node">
<title>nid&#45;19&#45;out</title>
<polygon fill="none" stroke="green" points="537.88,-252.85 377.13,-252.85 377.13,-178.85 537.88,-178.85 537.88,-252.85"/>
<text text-anchor="middle" x="457.5" y="-235.55" font-family="Times,serif" font-size="14.00">25</text>
<text text-anchor="middle" x="457.5" y="-219.05" font-family="Times,serif" font-size="14.00">[N/A] Speaker at Ext Rear</text>
<text text-anchor="middle" x="457.5" y="-202.55" font-family="Times,serif" font-size="14.00">Stereo</text>
<text text-anchor="middle" x="457.5" y="-186.05" font-family="Times,serif" font-size="14.00">IN Detect</text>
</g>
<!-- nid&#45;19&#45;out&#45;&gt;nid&#45;23 -->
<g id="edge53" class="edge">
<title>nid&#45;19&#45;out&#45;&gt;nid&#45;23</title>
<path fill="none" stroke="gray" stroke-dasharray="5,2" d="M538.33,-228.98C759.96,-265.43 1378.78,-367.2 1565.74,-397.94"/>
<polygon fill="gray" stroke="gray" points="1564.98,-401.36 1575.41,-399.53 1566.11,-394.46 1564.98,-401.36"/>
</g>
<!-- nid&#45;19&#45;out&#45;&gt;nid&#45;22 -->
<g id="edge45" class="edge">
<title>nid&#45;19&#45;out&#45;&gt;nid&#45;22</title>
<path fill="none" stroke="gray" stroke-dasharray="5,2" d="M523.83,-178.37C670.68,-99.17 1036.81,69.87 1327.61,-31.85 1431.32,-68.13 1525.7,-158.34 1577.73,-215.27"/>
<polygon fill="gray" stroke="gray" points="1575.09,-217.57 1584.39,-222.64 1580.28,-212.87 1575.09,-217.57"/>
</g>
<!-- nid&#45;19&#45;out&#45;&gt;nid&#45;0b&#45;ampin&#45;25 -->
<g id="edge13" class="edge">
<title>nid&#45;19&#45;out&#45;&gt;nid&#45;0b&#45;ampin&#45;25</title>
<path fill="none" stroke="#333333" d="M538.27,-252.93C546.09,-256.85 553.86,-260.86 561.25,-264.85 650.1,-312.78 749.97,-375.19 806.96,-411.66"/>
<polygon fill="#333333" stroke="#333333" points="804.83,-414.45 815.14,-416.9 808.61,-408.56 804.83,-414.45"/>
</g>
<!-- nid&#45;1a&#45;out -->
<g id="node20" class="node">
<title>nid&#45;1a&#45;out</title>
<polygon fill="none" stroke="green" points="530,-448.85 385,-448.85 385,-374.85 530,-374.85 530,-448.85"/>
<text text-anchor="middle" x="457.5" y="-431.55" font-family="Times,serif" font-size="14.00">26</text>
<text text-anchor="middle" x="457.5" y="-415.05" font-family="Times,serif" font-size="14.00">[Jack] Mic at Ext Right</text>
<text text-anchor="middle" x="457.5" y="-398.55" font-family="Times,serif" font-size="14.00">Stereo</text>
<text text-anchor="middle" x="457.5" y="-382.05" font-family="Times,serif" font-size="14.00">IN Detect</text>
</g>
<!-- nid&#45;1a&#45;out&#45;&gt;nid&#45;23 -->
<g id="edge54" class="edge">
<title>nid&#45;1a&#45;out&#45;&gt;nid&#45;23</title>
<path fill="none" stroke="gray" stroke-dasharray="5,2" d="M530.37,-410.03C591.71,-408.56 682.27,-406.63 761.25,-405.85 1012.95,-403.36 1075.89,-405.42 1327.61,-405.85 1411.58,-406 1509.12,-406.37 1567.6,-406.62"/>
<polygon fill="gray" stroke="gray" points="1567.23,-410.12 1577.25,-406.66 1567.26,-403.12 1567.23,-410.12"/>
</g>
<!-- nid&#45;1a&#45;out&#45;&gt;nid&#45;22 -->
<g id="edge46" class="edge">
<title>nid&#45;1a&#45;out&#45;&gt;nid&#45;22</title>
<path fill="none" stroke="gray" stroke-dasharray="5,2" d="M530.28,-402.77C745.73,-375.5 1383.44,-294.78 1568.83,-271.32"/>
<polygon fill="gray" stroke="gray" points="1569.14,-274.81 1578.62,-270.08 1568.26,-267.86 1569.14,-274.81"/>
</g>
<!-- nid&#45;1a&#45;out&#45;&gt;nid&#45;0b&#45;ampin&#45;26 -->
<g id="edge14" class="edge">
<title>nid&#45;1a&#45;out&#45;&gt;nid&#45;0b&#45;ampin&#45;26</title>
<path fill="none" stroke="#333333" d="M530.44,-444.55C591.44,-471.89 681.48,-511.37 761.25,-542.85 774.12,-547.93 788.11,-553.11 801.22,-557.81"/>
<polygon fill="#333333" stroke="#333333" points="799.97,-561.08 810.56,-561.13 802.31,-554.48 799.97,-561.08"/>
</g>
<!-- nid&#45;1b&#45;out -->
<g id="node21" class="node">
<title>nid&#45;1b&#45;out</title>
<polygon fill="none" stroke="green" points="537.88,-350.85 377.13,-350.85 377.13,-276.85 537.88,-276.85 537.88,-350.85"/>
<text text-anchor="middle" x="457.5" y="-333.55" font-family="Times,serif" font-size="14.00">27</text>
<text text-anchor="middle" x="457.5" y="-317.05" font-family="Times,serif" font-size="14.00">[N/A] Speaker at Ext Rear</text>
<text text-anchor="middle" x="457.5" y="-300.55" font-family="Times,serif" font-size="14.00">Stereo</text>
<text text-anchor="middle" x="457.5" y="-284.05" font-family="Times,serif" font-size="14.00">IN OUT Detect</text>
</g>
<!-- nid&#45;1b&#45;out&#45;&gt;nid&#45;23 -->
<g id="edge55" class="edge">
<title>nid&#45;1b&#45;out&#45;&gt;nid&#45;23</title>
<path fill="none" stroke="gray" stroke-dasharray="5,2" d="M538.33,-320.24C760.35,-338.02 1380.97,-387.72 1566.72,-402.59"/>
<polygon fill="gray" stroke="gray" points="1566.31,-406.07 1576.56,-403.38 1566.87,-399.09 1566.31,-406.07"/>
</g>
<!-- nid&#45;1b&#45;out&#45;&gt;nid&#45;22 -->
<g id="edge47" class="edge">
<title>nid&#45;1b&#45;out&#45;&gt;nid&#45;22</title>
<path fill="none" stroke="gray" stroke-dasharray="5,2" d="M538.15,-281.49C691.1,-223.43 1036.59,-112.08 1327.61,-161.85 1412.23,-176.33 1504.93,-212.77 1562.75,-238.18"/>
<polygon fill="gray" stroke="gray" points="1561.19,-241.31 1571.75,-242.17 1564.03,-234.92 1561.19,-241.31"/>
</g>
<!-- nid&#45;1b&#45;out&#45;&gt;nid&#45;0b&#45;ampin&#45;27 -->
<g id="edge15" class="edge">
<title>nid&#45;1b&#45;out&#45;&gt;nid&#45;0b&#45;ampin&#45;27</title>
<path fill="none" stroke="#333333" d="M538.15,-351.16C545.99,-355.04 553.8,-358.98 561.25,-362.85 651.83,-409.96 668.4,-433.4 761.25,-475.85 773.83,-481.6 787.72,-487.02 800.82,-491.75"/>
<polygon fill="#333333" stroke="#333333" points="799.58,-495.02 810.17,-495.05 801.9,-488.42 799.58,-495.02"/>
</g>
<!-- nid&#45;1d&#45;out -->
<g id="node22" class="node">
<title>nid&#45;1d&#45;out</title>
<polygon fill="none" stroke="green" points="553.25,-885.85 361.75,-885.85 361.75,-811.85 553.25,-811.85 553.25,-885.85"/>
<text text-anchor="middle" x="457.5" y="-868.55" font-family="Times,serif" font-size="14.00">29</text>
<text text-anchor="middle" x="457.5" y="-852.05" font-family="Times,serif" font-size="14.00">[N/A] Modem Hand at Ext N/A</text>
<text text-anchor="middle" x="457.5" y="-835.55" font-family="Times,serif" font-size="14.00">Mono</text>
<text text-anchor="middle" x="457.5" y="-819.05" font-family="Times,serif" font-size="14.00">IN</text>
</g>
<!-- nid&#45;1d&#45;out&#45;&gt;nid&#45;23 -->
<g id="edge56" class="edge">
<title>nid&#45;1d&#45;out&#45;&gt;nid&#45;23</title>
<path fill="none" stroke="gray" stroke-dasharray="5,2" d="M553.75,-860.38C750.96,-882.45 1196.56,-922.56 1327.61,-851.85 1348.06,-840.82 1516.81,-572.42 1588.21,-457.88"/>
<polygon fill="gray" stroke="gray" points="1591.08,-459.89 1593.39,-449.56 1585.14,-456.19 1591.08,-459.89"/>
</g>
<!-- nid&#45;1d&#45;out&#45;&gt;nid&#45;22 -->
<g id="edge48" class="edge">
<title>nid&#45;1d&#45;out&#45;&gt;nid&#45;22</title>
<path fill="none" stroke="gray" stroke-dasharray="5,2" d="M553.53,-851.83C752.44,-856.25 1204.46,-856.29 1327.61,-770.85 1496.49,-653.68 1407.27,-520.49 1527.61,-353.85 1541.94,-334 1561,-314.78 1578.07,-299.31"/>
<polygon fill="gray" stroke="gray" points="1579.99,-302.29 1585.14,-293.03 1575.34,-297.06 1579.99,-302.29"/>
</g>
<!-- nid&#45;1d&#45;out&#45;&gt;nid&#45;0b&#45;ampin&#45;29 -->
<g id="edge16" class="edge">
<title>nid&#45;1d&#45;out&#45;&gt;nid&#45;0b&#45;ampin&#45;29</title>
<path fill="none" stroke="#333333" d="M553.63,-815.38C631.22,-788.08 737.95,-750.53 800.95,-728.36"/>
<polygon fill="#333333" stroke="#333333" points="801.73,-731.8 810,-725.18 799.4,-725.19 801.73,-731.8"/>
</g>
<!-- nid&#45;0c -->
<g id="node23" class="node">
<title>nid&#45;0c</title>
<polygon fill="none" stroke="black" points="2004.68,-744.85 1984.06,-778.33 1942.83,-778.33 1922.21,-744.85 1942.83,-711.38 1984.06,-711.38 2004.68,-744.85"/>
<text text-anchor="middle" x="1963.44" y="-748.05" font-family="Times,serif" font-size="14.00">12</text>
<text text-anchor="middle" x="1963.44" y="-731.55" font-family="Times,serif" font-size="14.00">Stereo</text>
</g>
<!-- nid&#45;14&#45;in -->
<g id="node34" class="node">
<title>nid&#45;14&#45;in</title>
<polygon fill="none" stroke="green" points="2383.68,-861.85 2221.43,-861.85 2221.43,-787.85 2383.68,-787.85 2383.68,-861.85"/>
<text text-anchor="middle" x="2302.55" y="-844.55" font-family="Times,serif" font-size="14.00">20</text>
<text text-anchor="middle" x="2302.55" y="-828.05" font-family="Times,serif" font-size="14.00">[Fixed] Speaker at Int N/A</text>
<text text-anchor="middle" x="2302.55" y="-811.55" font-family="Times,serif" font-size="14.00">Stereo</text>
<text text-anchor="middle" x="2302.55" y="-795.05" font-family="Times,serif" font-size="14.00">OUT EAPD</text>
</g>
<!-- nid&#45;0c&#45;&gt;nid&#45;14&#45;in -->
<g id="edge29" class="edge">
<title>nid&#45;0c&#45;&gt;nid&#45;14&#45;in</title>
<path fill="none" stroke="#333333" d="M1999.88,-753.26C2049.38,-765.01 2140.94,-786.74 2210.26,-803.19"/>
<polygon fill="#333333" stroke="#333333" points="2209.17,-806.53 2219.71,-805.43 2210.79,-799.71 2209.17,-806.53"/>
</g>
<!-- nid&#45;15&#45;in -->
<g id="node35" class="node">
<title>nid&#45;15&#45;in</title>
<polygon fill="none" stroke="green" points="2384.43,-763.85 2220.68,-763.85 2220.68,-689.85 2384.43,-689.85 2384.43,-763.85"/>
<text text-anchor="middle" x="2302.55" y="-746.55" font-family="Times,serif" font-size="14.00">21</text>
<text text-anchor="middle" x="2302.55" y="-730.05" font-family="Times,serif" font-size="14.00">[Jack] HP Out at Ext Right</text>
<text text-anchor="middle" x="2302.55" y="-713.55" font-family="Times,serif" font-size="14.00">Stereo</text>
<text text-anchor="middle" x="2302.55" y="-697.05" font-family="Times,serif" font-size="14.00">OUT HP EAPD Detect</text>
</g>
<!-- nid&#45;0c&#45;&gt;nid&#45;15&#45;in -->
<g id="edge31" class="edge">
<title>nid&#45;0c&#45;&gt;nid&#45;15&#45;in</title>
<path fill="none" stroke="gray" stroke-dasharray="5,2" d="M2003.77,-742.75C2053.68,-740.09 2141.38,-735.4 2208.72,-731.81"/>
<polygon fill="gray" stroke="gray" points="2208.88,-735.3 2218.68,-731.28 2208.5,-728.31 2208.88,-735.3"/>
</g>
<!-- nid&#45;16&#45;in -->
<g id="node36" class="node">
<title>nid&#45;16&#45;in</title>
<polygon fill="none" stroke="green" points="2382.93,-665.85 2222.18,-665.85 2222.18,-591.85 2382.93,-591.85 2382.93,-665.85"/>
<text text-anchor="middle" x="2302.55" y="-648.55" font-family="Times,serif" font-size="14.00">22</text>
<text text-anchor="middle" x="2302.55" y="-632.05" font-family="Times,serif" font-size="14.00">[N/A] Speaker at Ext Rear</text>
<text text-anchor="middle" x="2302.55" y="-615.55" font-family="Times,serif" font-size="14.00">Stereo</text>
<text text-anchor="middle" x="2302.55" y="-599.05" font-family="Times,serif" font-size="14.00">OUT HP EAPD Detect</text>
</g>
<!-- nid&#45;0c&#45;&gt;nid&#45;16&#45;in -->
<g id="edge33" class="edge">
<title>nid&#45;0c&#45;&gt;nid&#45;16&#45;in</title>
<path fill="none" stroke="gray" stroke-dasharray="5,2" d="M1998,-733.3C2047.26,-716.35 2140.93,-684.12 2211.25,-659.93"/>
<polygon fill="gray" stroke="gray" points="2212.13,-663.32 2220.45,-656.76 2209.86,-656.7 2212.13,-663.32"/>
</g>
<!-- nid&#45;18&#45;in -->
<g id="node37" class="node">
<title>nid&#45;18&#45;in</title>
<polygon fill="none" stroke="green" points="2382.93,-567.85 2222.18,-567.85 2222.18,-493.85 2382.93,-493.85 2382.93,-567.85"/>
<text text-anchor="middle" x="2302.55" y="-550.55" font-family="Times,serif" font-size="14.00">24</text>
<text text-anchor="middle" x="2302.55" y="-534.05" font-family="Times,serif" font-size="14.00">[N/A] Speaker at Ext Rear</text>
<text text-anchor="middle" x="2302.55" y="-517.55" font-family="Times,serif" font-size="14.00">Stereo</text>
<text text-anchor="middle" x="2302.55" y="-501.05" font-family="Times,serif" font-size="14.00">IN OUT Detect</text>
</g>
<!-- nid&#45;0c&#45;&gt;nid&#45;18&#45;in -->
<g id="edge37" class="edge">
<title>nid&#45;0c&#45;&gt;nid&#45;18&#45;in</title>
<path fill="none" stroke="#333333" d="M1992.61,-725.02C2038.14,-693.21 2131.04,-629.37 2212.68,-579.85 2215.94,-577.87 2219.28,-575.88 2222.68,-573.88"/>
<polygon fill="#333333" stroke="#333333" points="2224.13,-577.09 2231.02,-569.04 2220.62,-571.03 2224.13,-577.09"/>
</g>
<!-- nid&#45;1b&#45;in -->
<g id="node40" class="node">
<title>nid&#45;1b&#45;in</title>
<polygon fill="none" stroke="green" points="2382.93,-959.85 2222.18,-959.85 2222.18,-885.85 2382.93,-885.85 2382.93,-959.85"/>
<text text-anchor="middle" x="2302.55" y="-942.55" font-family="Times,serif" font-size="14.00">27</text>
<text text-anchor="middle" x="2302.55" y="-926.05" font-family="Times,serif" font-size="14.00">[N/A] Speaker at Ext Rear</text>
<text text-anchor="middle" x="2302.55" y="-909.55" font-family="Times,serif" font-size="14.00">Stereo</text>
<text text-anchor="middle" x="2302.55" y="-893.05" font-family="Times,serif" font-size="14.00">IN OUT Detect</text>
</g>
<!-- nid&#45;0c&#45;&gt;nid&#45;1b&#45;in -->
<g id="edge41" class="edge">
<title>nid&#45;0c&#45;&gt;nid&#45;1b&#45;in</title>
<path fill="none" stroke="#333333" d="M1994.95,-760.96C2045.49,-787.65 2148.2,-841.88 2220.78,-880.2"/>
<polygon fill="#333333" stroke="#333333" points="2219,-883.22 2229.48,-884.79 2222.27,-877.03 2219,-883.22"/>
</g>
<!-- nid&#45;0c&#45;ampin&#45;2&#45;&gt;nid&#45;0c -->
<g id="edge17" class="edge">
<title>nid&#45;0c&#45;ampin&#45;2&#45;&gt;nid&#45;0c</title>
<path fill="none" stroke="#0000ff" d="M1667.83,-795.03C1733.96,-783.77 1855.11,-763.13 1919.52,-752.16"/>
<polygon fill="#0000ff" stroke="#0000ff" points="1919.45,-753.95 1924.08,-751.39 1918.86,-750.5 1919.45,-753.95"/>
</g>
<!-- nid&#45;0c&#45;ampin&#45;11&#45;&gt;nid&#45;0c -->
<g id="edge18" class="edge">
<title>nid&#45;0c&#45;ampin&#45;11&#45;&gt;nid&#45;0c</title>
<path fill="none" stroke="#c8c8c8" d="M1697.91,-737.86C1764.91,-739.63 1860.36,-742.15 1916.4,-743.63"/>
<polygon fill="#c8c8c8" stroke="#c8c8c8" points="1916.15,-745.38 1921.19,-743.76 1916.24,-741.88 1916.15,-745.38"/>
</g>
<!-- nid&#45;0d -->
<g id="node26" class="node">
<title>nid&#45;0d</title>
<polygon fill="none" stroke="black" points="2004.68,-654.85 1984.06,-688.33 1942.83,-688.33 1922.21,-654.85 1942.83,-621.38 1984.06,-621.38 2004.68,-654.85"/>
<text text-anchor="middle" x="1963.44" y="-658.05" font-family="Times,serif" font-size="14.00">13</text>
<text text-anchor="middle" x="1963.44" y="-641.55" font-family="Times,serif" font-size="14.00">Stereo</text>
</g>
<!-- nid&#45;0d&#45;&gt;nid&#45;14&#45;in -->
<g id="edge30" class="edge">
<title>nid&#45;0d&#45;&gt;nid&#45;14&#45;in</title>
<path fill="none" stroke="gray" stroke-dasharray="5,2" d="M1995.55,-670.54C2045.52,-695.74 2145.37,-746.09 2217.44,-782.43"/>
<polygon fill="gray" stroke="gray" points="2215.56,-785.41 2226.06,-786.78 2218.71,-779.16 2215.56,-785.41"/>
</g>
<!-- nid&#45;0d&#45;&gt;nid&#45;15&#45;in -->
<g id="edge32" class="edge">
<title>nid&#45;0d&#45;&gt;nid&#45;15&#45;in</title>
<path fill="none" stroke="#333333" d="M2000.2,-662.49C2049.58,-673.04 2140.37,-692.43 2209.44,-707.18"/>
<polygon fill="#333333" stroke="#333333" points="2208.33,-710.52 2218.84,-709.19 2209.8,-703.68 2208.33,-710.52"/>
</g>
<!-- nid&#45;0d&#45;&gt;nid&#45;16&#45;in -->
<g id="edge34" class="edge">
<title>nid&#45;0d&#45;&gt;nid&#45;16&#45;in</title>
<path fill="none" stroke="#333333" d="M2003.11,-651.87C2053.41,-647.99 2142.85,-641.09 2210.74,-635.86"/>
<polygon fill="#333333" stroke="#333333" points="2210.66,-639.37 2220.36,-635.11 2210.12,-632.39 2210.66,-639.37"/>
</g>
<!-- nid&#45;0d&#45;&gt;nid&#45;18&#45;in -->
<g id="edge38" class="edge">
<title>nid&#45;0d&#45;&gt;nid&#45;18&#45;in</title>
<path fill="none" stroke="gray" stroke-dasharray="5,2" d="M1997.69,-642.62C2046.83,-624.55 2140.62,-590.05 2211.06,-564.14"/>
<polygon fill="gray" stroke="gray" points="2212.12,-567.48 2220.29,-560.74 2209.7,-560.91 2212.12,-567.48"/>
</g>
<!-- nid&#45;0d&#45;&gt;nid&#45;1b&#45;in -->
<g id="edge42" class="edge">
<title>nid&#45;0d&#45;&gt;nid&#45;1b&#45;in</title>
<path fill="none" stroke="gray" stroke-dasharray="5,2" d="M1990.14,-678.82C2043.72,-728.57 2166.27,-841.18 2212.68,-873.85 2215.31,-875.71 2218.02,-877.54 2220.78,-879.36"/>
<polygon fill="gray" stroke="gray" points="2218.75,-882.22 2229.07,-884.63 2222.51,-876.31 2218.75,-882.22"/>
</g>
<!-- nid&#45;0d&#45;ampin&#45;3&#45;&gt;nid&#45;0d -->
<g id="edge21" class="edge">
<title>nid&#45;0d&#45;ampin&#45;3&#45;&gt;nid&#45;0d</title>
<path fill="none" stroke="#0000ff" d="M1697.91,-661.84C1764.91,-660.07 1860.36,-657.55 1916.4,-656.07"/>
<polygon fill="#0000ff" stroke="#0000ff" points="1916.24,-657.82 1921.19,-655.94 1916.15,-654.32 1916.24,-657.82"/>
</g>
<!-- nid&#45;0d&#45;ampin&#45;11&#45;&gt;nid&#45;0d -->
<g id="edge22" class="edge">
<title>nid&#45;0d&#45;ampin&#45;11&#45;&gt;nid&#45;0d</title>
<path fill="none" stroke="#c8c8c8" d="M1667.83,-604.67C1733.96,-615.94 1855.11,-636.57 1919.52,-647.54"/>
<polygon fill="#c8c8c8" stroke="#c8c8c8" points="1918.86,-649.2 1924.08,-648.32 1919.45,-645.75 1918.86,-649.2"/>
</g>
<!-- nid&#45;0f -->
<g id="node29" class="node">
<title>nid&#45;0f</title>
<polygon fill="none" stroke="black" points="2003.45,-969.85 1983.45,-1003.33 1943.44,-1003.33 1923.43,-969.85 1943.44,-936.38 1983.45,-936.38 2003.45,-969.85"/>
<text text-anchor="middle" x="1963.44" y="-973.05" font-family="Times,serif" font-size="14.00">15</text>
<text text-anchor="middle" x="1963.44" y="-956.55" font-family="Times,serif" font-size="14.00">Mono</text>
</g>
<!-- nid&#45;0f&#45;ampin&#45;2&#45;&gt;nid&#45;0f -->
<g id="edge25" class="edge">
<title>nid&#45;0f&#45;ampin&#45;2&#45;&gt;nid&#45;0f</title>
<path fill="none" stroke="#c8c8c8" d="M1678.91,-998.16C1746.5,-991.41 1857.68,-980.31 1918.8,-974.21"/>
<polygon fill="#c8c8c8" stroke="#c8c8c8" points="1918.97,-975.95 1923.77,-973.71 1918.62,-972.47 1918.97,-975.95"/>
</g>
<!-- nid&#45;0f&#45;ampin&#45;3&#45;&gt;nid&#45;0f -->
<g id="edge26" class="edge">
<title>nid&#45;0f&#45;ampin&#45;3&#45;&gt;nid&#45;0f</title>
<path fill="none" stroke="#0000ff" d="M1679.29,-942.41C1746.96,-948.97 1857.92,-959.72 1918.9,-965.63"/>
<polygon fill="#0000ff" stroke="#0000ff" points="1918.72,-967.37 1923.86,-966.11 1919.05,-963.89 1918.72,-967.37"/>
</g>
<!-- nid&#45;12&#45;out -->
<g id="node32" class="node">
<title>nid&#45;12&#45;out</title>
<polygon fill="none" stroke="green" points="1308.36,-117.85 1167.11,-117.85 1167.11,-43.85 1308.36,-43.85 1308.36,-117.85"/>
<text text-anchor="middle" x="1237.73" y="-100.55" font-family="Times,serif" font-size="14.00">18</text>
<text text-anchor="middle" x="1237.73" y="-84.05" font-family="Times,serif" font-size="14.00">[Fixed] Mic at Int N/A</text>
<text text-anchor="middle" x="1237.73" y="-67.55" font-family="Times,serif" font-size="14.00">Stereo</text>
<text text-anchor="middle" x="1237.73" y="-51.05" font-family="Times,serif" font-size="14.00">IN</text>
</g>
<!-- nid&#45;12&#45;out&#45;&gt;nid&#45;22 -->
<g id="edge50" class="edge">
<title>nid&#45;12&#45;out&#45;&gt;nid&#45;22</title>
<path fill="none" stroke="#333333" d="M1308.65,-114.6C1381.73,-149.88 1495.03,-204.57 1562.89,-237.33"/>
<polygon fill="#333333" stroke="#333333" points="1561.08,-240.34 1571.61,-241.54 1564.13,-234.04 1561.08,-240.34"/>
</g>
<!-- nid&#45;13&#45;out -->
<g id="node33" class="node">
<title>nid&#45;13&#45;out</title>
<polygon fill="none" stroke="green" points="1319.61,-247.85 1155.86,-247.85 1155.86,-173.85 1319.61,-173.85 1319.61,-247.85"/>
<text text-anchor="middle" x="1237.73" y="-230.55" font-family="Times,serif" font-size="14.00">19</text>
<text text-anchor="middle" x="1237.73" y="-214.05" font-family="Times,serif" font-size="14.00">[N/A] Line Out at Ext N/A</text>
<text text-anchor="middle" x="1237.73" y="-197.55" font-family="Times,serif" font-size="14.00">Stereo</text>
<text text-anchor="middle" x="1237.73" y="-181.05" font-family="Times,serif" font-size="14.00">IN</text>
</g>
<!-- nid&#45;13&#45;out&#45;&gt;nid&#45;22 -->
<g id="edge51" class="edge">
<title>nid&#45;13&#45;out&#45;&gt;nid&#45;22</title>
<path fill="none" stroke="gray" stroke-dasharray="5,2" d="M1320.04,-222.37C1394.39,-232.9 1502.27,-248.19 1566.33,-257.26"/>
<polygon fill="gray" stroke="gray" points="1565.49,-260.68 1575.88,-258.61 1566.47,-253.75 1565.49,-260.68"/>
</g>
<!-- nid&#45;18&#45;ampout -->
<g id="node38" class="node">
<title>nid&#45;18&#45;ampout</title>
<polygon fill="none" stroke="#c8c8c8" points="2654.43,-530.85 2613.93,-548.85 2613.93,-512.85 2654.43,-530.85"/>
</g>
<!-- nid&#45;18&#45;in&#45;&gt;nid&#45;18&#45;ampout -->
<g id="edge35" class="edge">
<title>nid&#45;18&#45;in&#45;&gt;nid&#45;18&#45;ampout</title>
<path fill="none" stroke="#c8c8c8" d="M2383.36,-530.85C2457.99,-530.85 2564.2,-530.85 2607.22,-530.85"/>
<polygon fill="#c8c8c8" stroke="#c8c8c8" points="2607.06,-532.6 2612.06,-530.85 2607.06,-529.1 2607.06,-532.6"/>
</g>
<!-- nid&#45;18&#45;ampin -->
<g id="node39" class="node">
<title>nid&#45;18&#45;ampin</title>
<polygon fill="none" stroke="#0000ff" points="107.88,-750.85 67.38,-768.85 67.38,-732.85 107.88,-750.85"/>
</g>
<!-- nid&#45;18&#45;ampin&#45;&gt;nid&#45;18&#45;out -->
<g id="edge36" class="edge">
<title>nid&#45;18&#45;ampin&#45;&gt;nid&#45;18&#45;out</title>
<path fill="none" stroke="#0000ff" d="M108.82,-750.85C162.78,-750.85 286.14,-750.85 370.42,-750.85"/>
<polygon fill="#0000ff" stroke="#0000ff" points="370.41,-752.6 375.41,-750.85 370.41,-749.1 370.41,-752.6"/>
</g>
<!-- nid&#45;1b&#45;ampout -->
<g id="node41" class="node">
<title>nid&#45;1b&#45;ampout</title>
<polygon fill="none" stroke="#c8c8c8" points="2654.43,-922.85 2613.93,-940.85 2613.93,-904.85 2654.43,-922.85"/>
</g>
<!-- nid&#45;1b&#45;in&#45;&gt;nid&#45;1b&#45;ampout -->
<g id="edge39" class="edge">
<title>nid&#45;1b&#45;in&#45;&gt;nid&#45;1b&#45;ampout</title>
<path fill="none" stroke="#c8c8c8" d="M2383.36,-922.85C2457.99,-922.85 2564.2,-922.85 2607.22,-922.85"/>
<polygon fill="#c8c8c8" stroke="#c8c8c8" points="2607.06,-924.6 2612.06,-922.85 2607.06,-921.1 2607.06,-924.6"/>
</g>
<!-- nid&#45;1b&#45;ampin -->
<g id="node42" class="node">
<title>nid&#45;1b&#45;ampin</title>
<polygon fill="none" stroke="#0000ff" points="107.88,-313.85 67.38,-331.85 67.38,-295.85 107.88,-313.85"/>
</g>
<!-- nid&#45;1b&#45;ampin&#45;&gt;nid&#45;1b&#45;out -->
<g id="edge40" class="edge">
<title>nid&#45;1b&#45;ampin&#45;&gt;nid&#45;1b&#45;out</title>
<path fill="none" stroke="#0000ff" d="M108.82,-313.85C162.78,-313.85 286.14,-313.85 370.42,-313.85"/>
<polygon fill="#0000ff" stroke="#0000ff" points="370.41,-315.6 375.41,-313.85 370.41,-312.1 370.41,-315.6"/>
</g>
</g>
</svg>
