<?xml version="1.0" encoding="UTF-8" standalone="no"?>
<!DOCTYPE svg PUBLIC "-//W3C//DTD SVG 1.1//EN"
 "http://www.w3.org/Graphics/SVG/1.1/DTD/svg11.dtd">
<!-- Generated by graphviz version 2.40.1 (20161225.0304)
 -->
<!-- Title: %3 Pages: 1 -->
<svg width="1834pt" height="1113pt"
 viewBox="0.00 0.00 1833.64 1113.00" xmlns="http://www.w3.org/2000/svg" xmlns:xlink="http://www.w3.org/1999/xlink">
<g id="graph0" class="graph" transform="scale(1 1) rotate(0) translate(4 1109)">
<title>%3</title>
<polygon fill="#ffffff" stroke="transparent" points="-4,4 -4,-1109 1829.6401,-1109 1829.6401,4 -4,4"/>
<g id="clust1" class="cluster">
<title>cluster&#45;nid&#45;02</title>
<polygon fill="none" stroke="#cccccc" points="36.9914,-107 36.9914,-177 493.1076,-177 493.1076,-107 36.9914,-107"/>
</g>
<g id="clust2" class="cluster">
<title>cluster&#45;nid&#45;03</title>
<polygon fill="none" stroke="#cccccc" points="36.9914,-22 36.9914,-92 493.1076,-92 493.1076,-22 36.9914,-22"/>
</g>
<g id="clust5" class="cluster">
<title>cluster&#45;nid&#45;06</title>
<polygon fill="none" stroke="#cccccc" points="8,-283 8,-353 154.1076,-353 154.1076,-283 8,-283"/>
</g>
<g id="clust6" class="cluster">
<title>cluster&#45;nid&#45;07</title>
<polygon fill="none" stroke="#cccccc" points="1156.749,-1016 1156.749,-1086 1529.5152,-1086 1529.5152,-1016 1156.749,-1016"/>
</g>
<g id="clust7" class="cluster">
<title>cluster&#45;nid&#45;08</title>
<polygon fill="none" stroke="#cccccc" points="1450.4527,-766 1450.4527,-836 1817.6401,-836 1817.6401,-766 1450.4527,-766"/>
</g>
<g id="clust8" class="cluster">
<title>cluster&#45;nid&#45;09</title>
<polygon fill="none" stroke="#cccccc" points="1450.4527,-408 1450.4527,-478 1817.6401,-478 1817.6401,-408 1450.4527,-408"/>
</g>
<g id="clust18" class="cluster">
<title>cluster&#45;nid&#45;12&#45;out</title>
<polygon fill="none" stroke="#cccccc" points="379.1076,-919 379.1076,-1003 537.1076,-1003 537.1076,-919 379.1076,-919"/>
</g>
<g id="clust20" class="cluster">
<title>cluster&#45;nid&#45;13&#45;out</title>
<polygon fill="none" stroke="#cccccc" points="369.6076,-1011 369.6076,-1095 546.6076,-1095 546.6076,-1011 369.6076,-1011"/>
</g>
<g id="clust21" class="cluster">
<title>cluster&#45;nid&#45;14&#45;in</title>
<polygon fill="none" stroke="#cccccc" points="762.6076,-192 762.6076,-276 941.6076,-276 941.6076,-192 762.6076,-192"/>
</g>
<g id="clust27" class="cluster">
<title>cluster&#45;nid&#45;18&#45;out</title>
<polygon fill="none" stroke="#cccccc" points="369.6076,-623 369.6076,-707 546.6076,-707 546.6076,-623 369.6076,-623"/>
</g>
<g id="clust29" class="cluster">
<title>cluster&#45;nid&#45;19&#45;out</title>
<polygon fill="none" stroke="#cccccc" points="369.6076,-508 369.6076,-592 546.6076,-592 546.6076,-508 369.6076,-508"/>
</g>
<g id="clust31" class="cluster">
<title>cluster&#45;nid&#45;1a&#45;out</title>
<polygon fill="none" stroke="#cccccc" points="369.6076,-371 369.6076,-455 546.6076,-455 546.6076,-371 369.6076,-371"/>
</g>
<g id="clust32" class="cluster">
<title>cluster&#45;nid&#45;1b&#45;in</title>
<polygon fill="none" stroke="#cccccc" points="763.6076,-8 763.6076,-92 1226.749,-92 1226.749,-8 763.6076,-8"/>
</g>
<g id="clust33" class="cluster">
<title>cluster&#45;nid&#45;1b&#45;out</title>
<polygon fill="none" stroke="#cccccc" points="46.0538,-824 46.0538,-908 546.6076,-908 546.6076,-824 46.0538,-824"/>
</g>
<g id="clust36" class="cluster">
<title>cluster&#45;nid&#45;1d&#45;out</title>
<polygon fill="none" stroke="#cccccc" points="354.1076,-726 354.1076,-810 562.1076,-810 562.1076,-726 354.1076,-726"/>
</g>
<g id="clust37" class="cluster">
<title>cluster&#45;nid&#45;1e&#45;in</title>
<polygon fill="none" stroke="#cccccc" points="369.6076,-276 369.6076,-360 546.6076,-360 546.6076,-276 369.6076,-276"/>
</g>
<g id="clust41" class="cluster">
<title>cluster&#45;nid&#45;21&#45;in</title>
<polygon fill="none" stroke="#cccccc" points="762.1076,-100 762.1076,-184 942.1076,-184 942.1076,-100 762.1076,-100"/>
</g>
<g id="clust43" class="cluster">
<title>cluster&#45;nid&#45;22</title>
<polygon fill="none" stroke="#cccccc" points="762.2149,-284 762.2149,-602 1241.3903,-602 1241.3903,-284 762.2149,-284"/>
</g>
<g id="clust44" class="cluster">
<title>cluster&#45;nid&#45;23</title>
<polygon fill="none" stroke="#cccccc" points="762.2149,-610 762.2149,-992 1241.3903,-992 1241.3903,-610 762.2149,-610"/>
</g>
<g id="clust45" class="cluster">
<title>cluster&#45;nid&#45;24</title>
<polygon fill="none" stroke="#cccccc" points="791.2332,-1005 791.2332,-1097 912.9821,-1097 912.9821,-1005 791.2332,-1005"/>
</g>
<!-- nid&#45;02 -->
<g id="node1" class="node">
<title>nid&#45;02</title>
<ellipse fill="none" stroke="#0000ff" cx="81.0538" cy="-142" rx="36.125" ry="26.7407"/>
<text text-anchor="middle" x="81.0538" y="-145.8" font-family="Times,serif" font-size="14.00" fill="#000000">2</text>
<text text-anchor="middle" x="81.0538" y="-130.8" font-family="Times,serif" font-size="14.00" fill="#000000">Stereo</text>
</g>
<!-- nid&#45;02&#45;ampout -->
<g id="node2" class="node">
<title>nid&#45;02&#45;ampout</title>
<polygon fill="none" stroke="#0000ff" points="485.1076,-142 444.6076,-160 444.6076,-124 485.1076,-142"/>
</g>
<!-- nid&#45;02&#45;&gt;nid&#45;02&#45;ampout -->
<g id="edge1" class="edge">
<title>nid&#45;02&#45;&gt;nid&#45;02&#45;ampout</title>
<path fill="none" stroke="#0000ff" d="M117.2073,-142C195.7751,-142 379.7987,-142 439.2355,-142"/>
<polygon fill="#0000ff" stroke="#0000ff" points="439.5909,-143.7501 444.5909,-142 439.5908,-140.2501 439.5909,-143.7501"/>
</g>
<!-- nid&#45;14&#45;in -->
<g id="node17" class="node">
<title>nid&#45;14&#45;in</title>
<polygon fill="none" stroke="#00ff00" points="933.6076,-268 770.6076,-268 770.6076,-200 933.6076,-200 933.6076,-268"/>
<text text-anchor="middle" x="852.1076" y="-252.8" font-family="Times,serif" font-size="14.00" fill="#000000">20</text>
<text text-anchor="middle" x="852.1076" y="-237.8" font-family="Times,serif" font-size="14.00" fill="#000000">[Fixed] Speaker at Int N/A</text>
<text text-anchor="middle" x="852.1076" y="-222.8" font-family="Times,serif" font-size="14.00" fill="#000000">Stereo</text>
<text text-anchor="middle" x="852.1076" y="-207.8" font-family="Times,serif" font-size="14.00" fill="#000000">OUT EAPD Detect</text>
</g>
<!-- nid&#45;02&#45;ampout&#45;&gt;nid&#45;14&#45;in -->
<g id="edge9" class="edge">
<title>nid&#45;02&#45;ampout&#45;&gt;nid&#45;14&#45;in</title>
<path fill="none" stroke="#333333" d="M476.0608,-146.1921C525.4232,-157.7184 665.792,-190.4948 760.3567,-212.5759"/>
<polygon fill="#333333" stroke="#333333" points="759.6844,-216.013 770.2183,-214.8786 761.2761,-209.1964 759.6844,-216.013"/>
</g>
<!-- nid&#45;1b&#45;in -->
<g id="node21" class="node">
<title>nid&#45;1b&#45;in</title>
<polygon fill="none" stroke="#00ff00" points="932.6076,-84 771.6076,-84 771.6076,-16 932.6076,-16 932.6076,-84"/>
<text text-anchor="middle" x="852.1076" y="-68.8" font-family="Times,serif" font-size="14.00" fill="#000000">27</text>
<text text-anchor="middle" x="852.1076" y="-53.8" font-family="Times,serif" font-size="14.00" fill="#000000">[N/A] Speaker at Ext Rear</text>
<text text-anchor="middle" x="852.1076" y="-38.8" font-family="Times,serif" font-size="14.00" fill="#000000">Stereo</text>
<text text-anchor="middle" x="852.1076" y="-23.8" font-family="Times,serif" font-size="14.00" fill="#000000">IN OUT EAPD Detect</text>
</g>
<!-- nid&#45;02&#45;ampout&#45;&gt;nid&#45;1b&#45;in -->
<g id="edge12" class="edge">
<title>nid&#45;02&#45;ampout&#45;&gt;nid&#45;1b&#45;in</title>
<path fill="none" stroke="#333333" d="M476.0608,-137.8079C525.6413,-126.2307 667.0341,-93.2151 761.6075,-71.132"/>
<polygon fill="#333333" stroke="#333333" points="762.5239,-74.5123 771.466,-68.83 760.9321,-67.6956 762.5239,-74.5123"/>
</g>
<!-- nid&#45;21&#45;in -->
<g id="node27" class="node">
<title>nid&#45;21&#45;in</title>
<polygon fill="none" stroke="#00ff00" points="934.1076,-176 770.1076,-176 770.1076,-108 934.1076,-108 934.1076,-176"/>
<text text-anchor="middle" x="852.1076" y="-160.8" font-family="Times,serif" font-size="14.00" fill="#000000">33</text>
<text text-anchor="middle" x="852.1076" y="-145.8" font-family="Times,serif" font-size="14.00" fill="#000000">[Jack] HP Out at Ext Right</text>
<text text-anchor="middle" x="852.1076" y="-130.8" font-family="Times,serif" font-size="14.00" fill="#000000">Stereo</text>
<text text-anchor="middle" x="852.1076" y="-115.8" font-family="Times,serif" font-size="14.00" fill="#000000">OUT HP EAPD Detect</text>
</g>
<!-- nid&#45;02&#45;ampout&#45;&gt;nid&#45;21&#45;in -->
<g id="edge15" class="edge">
<title>nid&#45;02&#45;ampout&#45;&gt;nid&#45;21&#45;in</title>
<path fill="none" stroke="#c0c0c0" stroke-dasharray="5,2" d="M485.1889,-142C540.8518,-142 670.373,-142 759.618,-142"/>
<polygon fill="#c0c0c0" stroke="#c0c0c0" points="759.7504,-145.5001 769.7504,-142 759.7503,-138.5001 759.7504,-145.5001"/>
</g>
<!-- nid&#45;03 -->
<g id="node3" class="node">
<title>nid&#45;03</title>
<ellipse fill="none" stroke="#0000ff" cx="81.0538" cy="-57" rx="36.125" ry="26.7407"/>
<text text-anchor="middle" x="81.0538" y="-60.8" font-family="Times,serif" font-size="14.00" fill="#000000">3</text>
<text text-anchor="middle" x="81.0538" y="-45.8" font-family="Times,serif" font-size="14.00" fill="#000000">Stereo</text>
</g>
<!-- nid&#45;03&#45;ampout -->
<g id="node4" class="node">
<title>nid&#45;03&#45;ampout</title>
<polygon fill="none" stroke="#0000ff" points="485.1076,-57 444.6076,-75 444.6076,-39 485.1076,-57"/>
</g>
<!-- nid&#45;03&#45;&gt;nid&#45;03&#45;ampout -->
<g id="edge2" class="edge">
<title>nid&#45;03&#45;&gt;nid&#45;03&#45;ampout</title>
<path fill="none" stroke="#0000ff" d="M117.2073,-57C195.7751,-57 379.7987,-57 439.2355,-57"/>
<polygon fill="#0000ff" stroke="#0000ff" points="439.5909,-58.7501 444.5909,-57 439.5908,-55.2501 439.5909,-58.7501"/>
</g>
<!-- nid&#45;03&#45;ampout&#45;&gt;nid&#45;1b&#45;in -->
<g id="edge13" class="edge">
<title>nid&#45;03&#45;ampout&#45;&gt;nid&#45;1b&#45;in</title>
<path fill="none" stroke="#c0c0c0" stroke-dasharray="5,2" d="M484.2642,-56.5353C539.7045,-55.5503 671.2929,-53.2124 761.0748,-51.6173"/>
<polygon fill="#c0c0c0" stroke="#c0c0c0" points="761.326,-55.1135 771.2623,-51.4363 761.2016,-48.1146 761.326,-55.1135"/>
</g>
<!-- nid&#45;03&#45;ampout&#45;&gt;nid&#45;21&#45;in -->
<g id="edge16" class="edge">
<title>nid&#45;03&#45;ampout&#45;&gt;nid&#45;21&#45;in</title>
<path fill="none" stroke="#333333" d="M476.3209,-60.9293C525.8727,-71.6194 665.7215,-101.7898 760.1178,-122.1545"/>
<polygon fill="#333333" stroke="#333333" points="759.4497,-125.5908 769.9629,-124.2784 760.9259,-118.7482 759.4497,-125.5908"/>
</g>
<!-- nid&#45;06 -->
<g id="node5" class="node">
<title>nid&#45;06</title>
<ellipse fill="none" stroke="#0000ff" cx="81.0538" cy="-318" rx="65.1077" ry="26.7407"/>
<text text-anchor="middle" x="81.0538" y="-321.8" font-family="Times,serif" font-size="14.00" fill="#000000">6</text>
<text text-anchor="middle" x="81.0538" y="-306.8" font-family="Times,serif" font-size="14.00" fill="#000000">Stereo Digital</text>
</g>
<!-- nid&#45;1e&#45;in -->
<g id="node26" class="node">
<title>nid&#45;1e&#45;in</title>
<polygon fill="none" stroke="#00ff00" points="538.6076,-352 377.6076,-352 377.6076,-284 538.6076,-284 538.6076,-352"/>
<text text-anchor="middle" x="458.1076" y="-336.8" font-family="Times,serif" font-size="14.00" fill="#000000">30</text>
<text text-anchor="middle" x="458.1076" y="-321.8" font-family="Times,serif" font-size="14.00" fill="#000000">[N/A] Speaker at Ext Rear</text>
<text text-anchor="middle" x="458.1076" y="-306.8" font-family="Times,serif" font-size="14.00" fill="#000000">Stereo Digital</text>
<text text-anchor="middle" x="458.1076" y="-291.8" font-family="Times,serif" font-size="14.00" fill="#000000">OUT Detect</text>
</g>
<!-- nid&#45;06&#45;&gt;nid&#45;1e&#45;in -->
<g id="edge14" class="edge">
<title>nid&#45;06&#45;&gt;nid&#45;1e&#45;in</title>
<path fill="none" stroke="#333333" d="M146.3011,-318C207.3488,-318 299.1074,-318 367.296,-318"/>
<polygon fill="#333333" stroke="#333333" points="367.6037,-321.5001 377.6036,-318 367.6036,-314.5001 367.6037,-321.5001"/>
</g>
<!-- nid&#45;07 -->
<g id="node6" class="node">
<title>nid&#45;07</title>
<ellipse fill="none" stroke="#ff0000" cx="1485.4527" cy="-1051" rx="36.125" ry="26.7407"/>
<text text-anchor="middle" x="1485.4527" y="-1054.8" font-family="Times,serif" font-size="14.00" fill="#000000">7</text>
<text text-anchor="middle" x="1485.4527" y="-1039.8" font-family="Times,serif" font-size="14.00" fill="#000000">Stereo</text>
</g>
<!-- nid&#45;07&#45;ampin -->
<g id="node7" class="node">
<title>nid&#45;07&#45;ampin</title>
<polygon fill="none" stroke="#3232f1" points="1218.749,-1051 1178.249,-1069 1178.249,-1033 1218.749,-1051"/>
</g>
<!-- nid&#45;07&#45;ampin&#45;&gt;nid&#45;07 -->
<g id="edge3" class="edge">
<title>nid&#45;07&#45;ampin&#45;&gt;nid&#45;07</title>
<path fill="none" stroke="#3232f1" d="M1218.8535,-1051C1270.5128,-1051 1383.3449,-1051 1444.3461,-1051"/>
<polygon fill="#3232f1" stroke="#3232f1" points="1444.3654,-1052.7501 1449.3653,-1051 1444.3653,-1049.2501 1444.3654,-1052.7501"/>
</g>
<!-- nid&#45;24 -->
<g id="node8" class="node">
<title>nid&#45;24</title>
<polygon fill="none" stroke="#000000" points="904.8568,-1089 820.9447,-1089 799.3585,-1013 883.2706,-1013 904.8568,-1089"/>
<text text-anchor="middle" x="852.1076" y="-1054.8" font-family="Times,serif" font-size="14.00" fill="#000000">36</text>
<text text-anchor="middle" x="852.1076" y="-1039.8" font-family="Times,serif" font-size="14.00" fill="#000000">Stereo</text>
</g>
<!-- nid&#45;24&#45;&gt;nid&#45;07&#45;ampin -->
<g id="edge4" class="edge">
<title>nid&#45;24&#45;&gt;nid&#45;07&#45;ampin</title>
<path fill="none" stroke="#333333" d="M894.095,-1051C966.142,-1051 1111.0516,-1051 1167.9969,-1051"/>
<polygon fill="#333333" stroke="#333333" points="1168.1654,-1054.5001 1178.1654,-1051 1168.1654,-1047.5001 1168.1654,-1054.5001"/>
</g>
<!-- nid&#45;08 -->
<g id="node9" class="node">
<title>nid&#45;08</title>
<ellipse fill="none" stroke="#ff0000" cx="1773.5776" cy="-801" rx="36.125" ry="26.7407"/>
<text text-anchor="middle" x="1773.5776" y="-804.8" font-family="Times,serif" font-size="14.00" fill="#000000">8</text>
<text text-anchor="middle" x="1773.5776" y="-789.8" font-family="Times,serif" font-size="14.00" fill="#000000">Stereo</text>
</g>
<!-- nid&#45;08&#45;ampin -->
<g id="node10" class="node">
<title>nid&#45;08&#45;ampin</title>
<polygon fill="none" stroke="#c8c8c8" points="1512.4527,-801 1471.9527,-819 1471.9527,-783 1512.4527,-801"/>
</g>
<!-- nid&#45;08&#45;ampin&#45;&gt;nid&#45;08 -->
<g id="edge5" class="edge">
<title>nid&#45;08&#45;ampin&#45;&gt;nid&#45;08</title>
<path fill="none" stroke="#c8c8c8" d="M1512.5588,-801C1563.1446,-801 1672.2111,-801 1732.1061,-801"/>
<polygon fill="#c8c8c8" stroke="#c8c8c8" points="1732.3918,-802.7501 1737.3918,-801 1732.3918,-799.2501 1732.3918,-802.7501"/>
</g>
<!-- nid&#45;23 -->
<g id="node11" class="node">
<title>nid&#45;23</title>
<polygon fill="none" stroke="#000000" points="1233.5321,-801 1212.6405,-832.0538 1170.8574,-832.0538 1149.9658,-801 1170.8574,-769.9462 1212.6405,-769.9462 1233.5321,-801"/>
<text text-anchor="middle" x="1191.749" y="-804.8" font-family="Times,serif" font-size="14.00" fill="#000000">35</text>
<text text-anchor="middle" x="1191.749" y="-789.8" font-family="Times,serif" font-size="14.00" fill="#000000">Stereo</text>
</g>
<!-- nid&#45;23&#45;&gt;nid&#45;08&#45;ampin -->
<g id="edge6" class="edge">
<title>nid&#45;23&#45;&gt;nid&#45;08&#45;ampin</title>
<path fill="none" stroke="#333333" d="M1233.5177,-801C1296.0931,-801 1412.1257,-801 1461.842,-801"/>
<polygon fill="#333333" stroke="#333333" points="1461.9324,-804.5001 1471.9324,-801 1461.9324,-797.5001 1461.9324,-804.5001"/>
</g>
<!-- nid&#45;09 -->
<g id="node12" class="node">
<title>nid&#45;09</title>
<ellipse fill="none" stroke="#ff0000" cx="1773.5776" cy="-443" rx="36.125" ry="26.7407"/>
<text text-anchor="middle" x="1773.5776" y="-446.8" font-family="Times,serif" font-size="14.00" fill="#000000">9</text>
<text text-anchor="middle" x="1773.5776" y="-431.8" font-family="Times,serif" font-size="14.00" fill="#000000">Stereo</text>
</g>
<!-- nid&#45;09&#45;ampin -->
<g id="node13" class="node">
<title>nid&#45;09&#45;ampin</title>
<polygon fill="none" stroke="#c8c8c8" points="1512.4527,-443 1471.9527,-461 1471.9527,-425 1512.4527,-443"/>
</g>
<!-- nid&#45;09&#45;ampin&#45;&gt;nid&#45;09 -->
<g id="edge7" class="edge">
<title>nid&#45;09&#45;ampin&#45;&gt;nid&#45;09</title>
<path fill="none" stroke="#c8c8c8" d="M1512.5588,-443C1563.1446,-443 1672.2111,-443 1732.1061,-443"/>
<polygon fill="#c8c8c8" stroke="#c8c8c8" points="1732.3918,-444.7501 1737.3918,-443 1732.3918,-441.2501 1732.3918,-444.7501"/>
</g>
<!-- nid&#45;22 -->
<g id="node14" class="node">
<title>nid&#45;22</title>
<polygon fill="none" stroke="#000000" points="1233.5321,-443 1212.6405,-474.0538 1170.8574,-474.0538 1149.9658,-443 1170.8574,-411.9462 1212.6405,-411.9462 1233.5321,-443"/>
<text text-anchor="middle" x="1191.749" y="-446.8" font-family="Times,serif" font-size="14.00" fill="#000000">34</text>
<text text-anchor="middle" x="1191.749" y="-431.8" font-family="Times,serif" font-size="14.00" fill="#000000">Stereo</text>
</g>
<!-- nid&#45;22&#45;&gt;nid&#45;09&#45;ampin -->
<g id="edge8" class="edge">
<title>nid&#45;22&#45;&gt;nid&#45;09&#45;ampin</title>
<path fill="none" stroke="#333333" d="M1233.5177,-443C1296.0931,-443 1412.1257,-443 1461.842,-443"/>
<polygon fill="#333333" stroke="#333333" points="1461.9324,-446.5001 1471.9324,-443 1461.9324,-439.5001 1461.9324,-446.5001"/>
</g>
<!-- nid&#45;12&#45;out -->
<g id="node15" class="node">
<title>nid&#45;12&#45;out</title>
<polygon fill="none" stroke="#00ff00" points="529.1076,-995 387.1076,-995 387.1076,-927 529.1076,-927 529.1076,-995"/>
<text text-anchor="middle" x="458.1076" y="-979.8" font-family="Times,serif" font-size="14.00" fill="#000000">18</text>
<text text-anchor="middle" x="458.1076" y="-964.8" font-family="Times,serif" font-size="14.00" fill="#000000">[Fixed] Mic at Int N/A</text>
<text text-anchor="middle" x="458.1076" y="-949.8" font-family="Times,serif" font-size="14.00" fill="#000000">Stereo</text>
<text text-anchor="middle" x="458.1076" y="-934.8" font-family="Times,serif" font-size="14.00" fill="#000000">IN</text>
</g>
<!-- nid&#45;12&#45;out&#45;&gt;nid&#45;24 -->
<g id="edge39" class="edge">
<title>nid&#45;12&#45;out&#45;&gt;nid&#45;24</title>
<path fill="none" stroke="#333333" d="M529.4581,-977.2983C606.3942,-994.8726 727.2118,-1022.4705 797.1158,-1038.4384"/>
<polygon fill="#333333" stroke="#333333" points="796.5205,-1041.8925 807.0488,-1040.7074 798.0794,-1035.0683 796.5205,-1041.8925"/>
</g>
<!-- nid&#45;23&#45;ampin&#45;18 -->
<g id="node38" class="node">
<title>nid&#45;23&#45;ampin&#45;18</title>
<polygon fill="none" stroke="#c8c8c8" points="933.8933,-961 811.2148,-984 811.2148,-938 933.8933,-961"/>
<text text-anchor="middle" x="852.1076" y="-957.3" font-family="Times,serif" font-size="14.00" fill="#000000">5 (18)</text>
</g>
<!-- nid&#45;12&#45;out&#45;&gt;nid&#45;23&#45;ampin&#45;18 -->
<g id="edge38" class="edge">
<title>nid&#45;12&#45;out&#45;&gt;nid&#45;23&#45;ampin&#45;18</title>
<path fill="none" stroke="#333333" d="M529.4581,-961C607.8185,-961 731.7003,-961 800.9453,-961"/>
<polygon fill="#333333" stroke="#333333" points="801.1639,-964.5001 811.1638,-961 801.1638,-957.5001 801.1639,-964.5001"/>
</g>
<!-- nid&#45;13&#45;out -->
<g id="node16" class="node">
<title>nid&#45;13&#45;out</title>
<polygon fill="none" stroke="#00ff00" points="538.6076,-1087 377.6076,-1087 377.6076,-1019 538.6076,-1019 538.6076,-1087"/>
<text text-anchor="middle" x="458.1076" y="-1071.8" font-family="Times,serif" font-size="14.00" fill="#000000">19</text>
<text text-anchor="middle" x="458.1076" y="-1056.8" font-family="Times,serif" font-size="14.00" fill="#000000">[N/A] Speaker at Ext Rear</text>
<text text-anchor="middle" x="458.1076" y="-1041.8" font-family="Times,serif" font-size="14.00" fill="#000000">Stereo</text>
<text text-anchor="middle" x="458.1076" y="-1026.8" font-family="Times,serif" font-size="14.00" fill="#000000">IN</text>
</g>
<!-- nid&#45;13&#45;out&#45;&gt;nid&#45;24 -->
<g id="edge40" class="edge">
<title>nid&#45;13&#45;out&#45;&gt;nid&#45;24</title>
<path fill="none" stroke="#c0c0c0" stroke-dasharray="5,2" d="M538.7902,-1052.5904C616.8989,-1052.194 733.0161,-1051.6045 799.7669,-1051.2657"/>
<polygon fill="#c0c0c0" stroke="#c0c0c0" points="800.0606,-1054.7643 810.0427,-1051.2135 800.025,-1047.7644 800.0606,-1054.7643"/>
</g>
<!-- nid&#45;18&#45;out -->
<g id="node18" class="node">
<title>nid&#45;18&#45;out</title>
<polygon fill="none" stroke="#00ff00" points="538.6076,-699 377.6076,-699 377.6076,-631 538.6076,-631 538.6076,-699"/>
<text text-anchor="middle" x="458.1076" y="-683.8" font-family="Times,serif" font-size="14.00" fill="#000000">24</text>
<text text-anchor="middle" x="458.1076" y="-668.8" font-family="Times,serif" font-size="14.00" fill="#000000">[N/A] Speaker at Ext Rear</text>
<text text-anchor="middle" x="458.1076" y="-653.8" font-family="Times,serif" font-size="14.00" fill="#000000">Stereo</text>
<text text-anchor="middle" x="458.1076" y="-638.8" font-family="Times,serif" font-size="14.00" fill="#000000">IN Detect</text>
</g>
<!-- nid&#45;22&#45;ampin&#45;24 -->
<g id="node28" class="node">
<title>nid&#45;22&#45;ampin&#45;24</title>
<polygon fill="none" stroke="#c8c8c8" points="933.8933,-443 811.2148,-466 811.2148,-420 933.8933,-443"/>
<text text-anchor="middle" x="852.1076" y="-439.3" font-family="Times,serif" font-size="14.00" fill="#000000">0 (24)</text>
</g>
<!-- nid&#45;18&#45;out&#45;&gt;nid&#45;22&#45;ampin&#45;24 -->
<g id="edge22" class="edge">
<title>nid&#45;18&#45;out&#45;&gt;nid&#45;22&#45;ampin&#45;24</title>
<path fill="none" stroke="#333333" d="M509.5459,-630.9502C582.2292,-583.1693 711.7424,-499.3358 762.1076,-475 774.4822,-469.0208 788.2768,-463.5592 801.2752,-458.9068"/>
<polygon fill="#333333" stroke="#333333" points="802.7309,-462.1061 811.0233,-455.5116 800.4285,-455.4956 802.7309,-462.1061"/>
</g>
<!-- nid&#45;23&#45;ampin&#45;24 -->
<g id="node33" class="node">
<title>nid&#45;23&#45;ampin&#45;24</title>
<polygon fill="none" stroke="#c8c8c8" points="933.8933,-769 811.2148,-792 811.2148,-746 933.8933,-769"/>
<text text-anchor="middle" x="852.1076" y="-765.3" font-family="Times,serif" font-size="14.00" fill="#000000">0 (24)</text>
</g>
<!-- nid&#45;18&#45;out&#45;&gt;nid&#45;23&#45;ampin&#45;24 -->
<g id="edge33" class="edge">
<title>nid&#45;18&#45;out&#45;&gt;nid&#45;23&#45;ampin&#45;24</title>
<path fill="none" stroke="#333333" d="M538.7902,-686.2969C617.4879,-707.0699 734.7696,-738.0275 801.2685,-755.5805"/>
<polygon fill="#333333" stroke="#333333" points="800.5339,-759.0064 811.096,-758.1746 802.3205,-752.2382 800.5339,-759.0064"/>
</g>
<!-- nid&#45;19&#45;out -->
<g id="node19" class="node">
<title>nid&#45;19&#45;out</title>
<polygon fill="none" stroke="#00ff00" points="538.6076,-584 377.6076,-584 377.6076,-516 538.6076,-516 538.6076,-584"/>
<text text-anchor="middle" x="458.1076" y="-568.8" font-family="Times,serif" font-size="14.00" fill="#000000">25</text>
<text text-anchor="middle" x="458.1076" y="-553.8" font-family="Times,serif" font-size="14.00" fill="#000000">[N/A] Speaker at Ext Rear</text>
<text text-anchor="middle" x="458.1076" y="-538.8" font-family="Times,serif" font-size="14.00" fill="#000000">Stereo</text>
<text text-anchor="middle" x="458.1076" y="-523.8" font-family="Times,serif" font-size="14.00" fill="#000000">IN Detect</text>
</g>
<!-- nid&#45;22&#45;ampin&#45;25 -->
<g id="node29" class="node">
<title>nid&#45;22&#45;ampin&#45;25</title>
<polygon fill="none" stroke="#c8c8c8" points="933.8933,-379 811.2148,-402 811.2148,-356 933.8933,-379"/>
<text text-anchor="middle" x="852.1076" y="-375.3" font-family="Times,serif" font-size="14.00" fill="#000000">1 (25)</text>
</g>
<!-- nid&#45;19&#45;out&#45;&gt;nid&#45;22&#45;ampin&#45;25 -->
<g id="edge23" class="edge">
<title>nid&#45;19&#45;out&#45;&gt;nid&#45;22&#45;ampin&#45;25</title>
<path fill="none" stroke="#333333" d="M527.9893,-515.9402C589.1218,-486.6539 680.6311,-444.0384 762.1076,-411 774.7213,-405.8852 788.4983,-400.7607 801.3959,-396.1586"/>
<polygon fill="#333333" stroke="#333333" points="802.7887,-399.3787 811.0536,-392.7499 800.4588,-392.7778 802.7887,-399.3787"/>
</g>
<!-- nid&#45;23&#45;ampin&#45;25 -->
<g id="node34" class="node">
<title>nid&#45;23&#45;ampin&#45;25</title>
<polygon fill="none" stroke="#c8c8c8" points="933.8933,-705 811.2148,-728 811.2148,-682 933.8933,-705"/>
<text text-anchor="middle" x="852.1076" y="-701.3" font-family="Times,serif" font-size="14.00" fill="#000000">1 (25)</text>
</g>
<!-- nid&#45;19&#45;out&#45;&gt;nid&#45;23&#45;ampin&#45;25 -->
<g id="edge34" class="edge">
<title>nid&#45;19&#45;out&#45;&gt;nid&#45;23&#45;ampin&#45;25</title>
<path fill="none" stroke="#333333" d="M538.7041,-583.7067C599.7608,-608.9741 685.8654,-644.037 762.1076,-673 774.8317,-677.8336 788.6483,-682.8572 801.5488,-687.4521"/>
<polygon fill="#333333" stroke="#333333" points="800.6073,-690.8317 811.2021,-690.872 802.9449,-684.2335 800.6073,-690.8317"/>
</g>
<!-- nid&#45;1a&#45;out -->
<g id="node20" class="node">
<title>nid&#45;1a&#45;out</title>
<polygon fill="none" stroke="#00ff00" points="538.6076,-447 377.6076,-447 377.6076,-379 538.6076,-379 538.6076,-447"/>
<text text-anchor="middle" x="458.1076" y="-431.8" font-family="Times,serif" font-size="14.00" fill="#000000">26</text>
<text text-anchor="middle" x="458.1076" y="-416.8" font-family="Times,serif" font-size="14.00" fill="#000000">[N/A] Speaker at Ext Rear</text>
<text text-anchor="middle" x="458.1076" y="-401.8" font-family="Times,serif" font-size="14.00" fill="#000000">Stereo</text>
<text text-anchor="middle" x="458.1076" y="-386.8" font-family="Times,serif" font-size="14.00" fill="#000000">IN Detect</text>
</g>
<!-- nid&#45;22&#45;ampin&#45;26 -->
<g id="node30" class="node">
<title>nid&#45;22&#45;ampin&#45;26</title>
<polygon fill="none" stroke="#c8c8c8" points="932.7935,-315 811.7647,-338 811.7647,-292 932.7935,-315"/>
<text text-anchor="middle" x="852.1076" y="-311.3" font-family="Times,serif" font-size="14.00" fill="#000000">2 (26)</text>
</g>
<!-- nid&#45;1a&#45;out&#45;&gt;nid&#45;22&#45;ampin&#45;26 -->
<g id="edge24" class="edge">
<title>nid&#45;1a&#45;out&#45;&gt;nid&#45;22&#45;ampin&#45;26</title>
<path fill="none" stroke="#333333" d="M538.7902,-392.9318C617.7021,-373.3039 735.4081,-344.0268 801.8102,-327.5105"/>
<polygon fill="#333333" stroke="#333333" points="802.7591,-330.8812 811.6186,-325.0709 801.0694,-324.0882 802.7591,-330.8812"/>
</g>
<!-- nid&#45;23&#45;ampin&#45;26 -->
<g id="node35" class="node">
<title>nid&#45;23&#45;ampin&#45;26</title>
<polygon fill="none" stroke="#c8c8c8" points="932.7935,-641 811.7647,-664 811.7647,-618 932.7935,-641"/>
<text text-anchor="middle" x="852.1076" y="-637.3" font-family="Times,serif" font-size="14.00" fill="#000000">2 (26)</text>
</g>
<!-- nid&#45;1a&#45;out&#45;&gt;nid&#45;23&#45;ampin&#45;26 -->
<g id="edge35" class="edge">
<title>nid&#45;1a&#45;out&#45;&gt;nid&#45;23&#45;ampin&#45;26</title>
<path fill="none" stroke="#333333" d="M505.3577,-447.1056C563.7267,-488.2543 666.9931,-557.8909 762.1076,-606 774.7478,-612.3934 788.8481,-618.3792 802.0677,-623.5299"/>
<polygon fill="#333333" stroke="#333333" points="800.9138,-626.8356 811.5046,-627.1267 803.4069,-620.2946 800.9138,-626.8356"/>
</g>
<!-- nid&#45;1b&#45;ampout -->
<g id="node22" class="node">
<title>nid&#45;1b&#45;ampout</title>
<polygon fill="none" stroke="#c8c8c8" points="1218.749,-50 1178.249,-68 1178.249,-32 1218.749,-50"/>
</g>
<!-- nid&#45;1b&#45;in&#45;&gt;nid&#45;1b&#45;ampout -->
<g id="edge10" class="edge">
<title>nid&#45;1b&#45;in&#45;&gt;nid&#45;1b&#45;ampout</title>
<path fill="none" stroke="#c8c8c8" d="M933.0287,-50C1012.4059,-50 1127.8709,-50 1172.8369,-50"/>
<polygon fill="#c8c8c8" stroke="#c8c8c8" points="1172.9639,-51.7501 1177.9639,-50 1172.9638,-48.2501 1172.9639,-51.7501"/>
</g>
<!-- nid&#45;1b&#45;out -->
<g id="node23" class="node">
<title>nid&#45;1b&#45;out</title>
<polygon fill="none" stroke="#00ff00" points="538.6076,-900 377.6076,-900 377.6076,-832 538.6076,-832 538.6076,-900"/>
<text text-anchor="middle" x="458.1076" y="-884.8" font-family="Times,serif" font-size="14.00" fill="#000000">27</text>
<text text-anchor="middle" x="458.1076" y="-869.8" font-family="Times,serif" font-size="14.00" fill="#000000">[N/A] Speaker at Ext Rear</text>
<text text-anchor="middle" x="458.1076" y="-854.8" font-family="Times,serif" font-size="14.00" fill="#000000">Stereo</text>
<text text-anchor="middle" x="458.1076" y="-839.8" font-family="Times,serif" font-size="14.00" fill="#000000">IN OUT EAPD Detect</text>
</g>
<!-- nid&#45;22&#45;ampin&#45;27 -->
<g id="node31" class="node">
<title>nid&#45;22&#45;ampin&#45;27</title>
<polygon fill="none" stroke="#c8c8c8" points="933.8933,-571 811.2148,-594 811.2148,-548 933.8933,-571"/>
<text text-anchor="middle" x="852.1076" y="-567.3" font-family="Times,serif" font-size="14.00" fill="#000000">3 (27)</text>
</g>
<!-- nid&#45;1b&#45;out&#45;&gt;nid&#45;22&#45;ampin&#45;27 -->
<g id="edge25" class="edge">
<title>nid&#45;1b&#45;out&#45;&gt;nid&#45;22&#45;ampin&#45;27</title>
<path fill="none" stroke="#333333" d="M534.0506,-831.8783C543.8034,-826.3967 553.4086,-820.4004 562.1076,-814 665.4067,-737.9966 655.396,-677.1326 762.1076,-606 774.0064,-598.0685 787.9675,-591.5368 801.2956,-586.3527"/>
<polygon fill="#333333" stroke="#333333" points="802.6876,-589.5696 810.8502,-582.8152 800.2571,-583.0051 802.6876,-589.5696"/>
</g>
<!-- nid&#45;23&#45;ampin&#45;27 -->
<g id="node36" class="node">
<title>nid&#45;23&#45;ampin&#45;27</title>
<polygon fill="none" stroke="#c8c8c8" points="933.8933,-897 811.2148,-920 811.2148,-874 933.8933,-897"/>
<text text-anchor="middle" x="852.1076" y="-893.3" font-family="Times,serif" font-size="14.00" fill="#000000">3 (27)</text>
</g>
<!-- nid&#45;1b&#45;out&#45;&gt;nid&#45;23&#45;ampin&#45;27 -->
<g id="edge36" class="edge">
<title>nid&#45;1b&#45;out&#45;&gt;nid&#45;23&#45;ampin&#45;27</title>
<path fill="none" stroke="#333333" d="M538.7902,-872.3481C617.3263,-878.5274 734.2881,-887.7299 800.8582,-892.9677"/>
<polygon fill="#333333" stroke="#333333" points="800.8522,-896.4779 811.096,-893.7732 801.4014,-889.4995 800.8522,-896.4779"/>
</g>
<!-- nid&#45;1b&#45;ampin -->
<g id="node24" class="node">
<title>nid&#45;1b&#45;ampin</title>
<polygon fill="none" stroke="#0000ff" points="108.0538,-866 67.5538,-884 67.5538,-848 108.0538,-866"/>
</g>
<!-- nid&#45;1b&#45;ampin&#45;&gt;nid&#45;1b&#45;out -->
<g id="edge11" class="edge">
<title>nid&#45;1b&#45;ampin&#45;&gt;nid&#45;1b&#45;out</title>
<path fill="none" stroke="#0000ff" d="M108.1706,-866C162.6397,-866 287.377,-866 372.2199,-866"/>
<polygon fill="#0000ff" stroke="#0000ff" points="372.2419,-867.7501 377.2418,-866 372.2418,-864.2501 372.2419,-867.7501"/>
</g>
<!-- nid&#45;1d&#45;out -->
<g id="node25" class="node">
<title>nid&#45;1d&#45;out</title>
<polygon fill="none" stroke="#00ff00" points="554.1076,-802 362.1076,-802 362.1076,-734 554.1076,-734 554.1076,-802"/>
<text text-anchor="middle" x="458.1076" y="-786.8" font-family="Times,serif" font-size="14.00" fill="#000000">29</text>
<text text-anchor="middle" x="458.1076" y="-771.8" font-family="Times,serif" font-size="14.00" fill="#000000">[N/A] Modem Hand at Ext N/A</text>
<text text-anchor="middle" x="458.1076" y="-756.8" font-family="Times,serif" font-size="14.00" fill="#000000">Mono</text>
<text text-anchor="middle" x="458.1076" y="-741.8" font-family="Times,serif" font-size="14.00" fill="#000000">IN</text>
</g>
<!-- nid&#45;22&#45;ampin&#45;29 -->
<g id="node32" class="node">
<title>nid&#45;22&#45;ampin&#45;29</title>
<polygon fill="none" stroke="#c8c8c8" points="933.8933,-507 811.2148,-530 811.2148,-484 933.8933,-507"/>
<text text-anchor="middle" x="852.1076" y="-503.3" font-family="Times,serif" font-size="14.00" fill="#000000">4 (29)</text>
</g>
<!-- nid&#45;1d&#45;out&#45;&gt;nid&#45;22&#45;ampin&#45;29 -->
<g id="edge26" class="edge">
<title>nid&#45;1d&#45;out&#45;&gt;nid&#45;22&#45;ampin&#45;29</title>
<path fill="none" stroke="#333333" d="M525.0956,-733.9841C537.6782,-726.8456 550.5138,-719.0312 562.1076,-711 658.4824,-644.24 660.7134,-597.8574 762.1076,-539 774.1079,-532.0341 787.8782,-526.2032 800.9794,-521.5096"/>
<polygon fill="#333333" stroke="#333333" points="802.4976,-524.6895 810.8272,-518.1421 800.2327,-518.0661 802.4976,-524.6895"/>
</g>
<!-- nid&#45;23&#45;ampin&#45;29 -->
<g id="node37" class="node">
<title>nid&#45;23&#45;ampin&#45;29</title>
<polygon fill="none" stroke="#c8c8c8" points="933.8933,-833 811.2148,-856 811.2148,-810 933.8933,-833"/>
<text text-anchor="middle" x="852.1076" y="-829.3" font-family="Times,serif" font-size="14.00" fill="#000000">4 (29)</text>
</g>
<!-- nid&#45;1d&#45;out&#45;&gt;nid&#45;23&#45;ampin&#45;29 -->
<g id="edge37" class="edge">
<title>nid&#45;1d&#45;out&#45;&gt;nid&#45;23&#45;ampin&#45;29</title>
<path fill="none" stroke="#333333" d="M554.2389,-783.8592C632.1385,-796.7107 738.8553,-814.3162 801.1456,-824.5926"/>
<polygon fill="#333333" stroke="#333333" points="800.6867,-828.0641 811.1231,-826.2386 801.8262,-821.1574 800.6867,-828.0641"/>
</g>
<!-- nid&#45;22&#45;ampin&#45;24&#45;&gt;nid&#45;22 -->
<g id="edge17" class="edge">
<title>nid&#45;22&#45;ampin&#45;24&#45;&gt;nid&#45;22</title>
<path fill="none" stroke="#c8c8c8" d="M934.3253,-443C1000.3208,-443 1090.6232,-443 1144.8665,-443"/>
<polygon fill="#c8c8c8" stroke="#c8c8c8" points="1145.0013,-444.7501 1150.0013,-443 1145.0012,-441.2501 1145.0013,-444.7501"/>
</g>
<!-- nid&#45;22&#45;ampin&#45;25&#45;&gt;nid&#45;22 -->
<g id="edge18" class="edge">
<title>nid&#45;22&#45;ampin&#45;25&#45;&gt;nid&#45;22</title>
<path fill="none" stroke="#c8c8c8" d="M893.0763,-386.7199C957.9891,-398.9517 1083.8348,-422.6653 1149.524,-435.0434"/>
<polygon fill="#c8c8c8" stroke="#c8c8c8" points="1149.2958,-436.7811 1154.5334,-435.9873 1149.944,-433.3416 1149.2958,-436.7811"/>
</g>
<!-- nid&#45;22&#45;ampin&#45;26&#45;&gt;nid&#45;22 -->
<g id="edge19" class="edge">
<title>nid&#45;22&#45;ampin&#45;26&#45;&gt;nid&#45;22</title>
<path fill="none" stroke="#c8c8c8" d="M880.9531,-325.0459C898.6438,-331.2591 921.7334,-339.4618 942.1076,-347 1017.2624,-374.8062 1104.5359,-408.7485 1153.4367,-427.9182"/>
<polygon fill="#c8c8c8" stroke="#c8c8c8" points="1153.0434,-429.6436 1158.3372,-429.8401 1154.3213,-426.3853 1153.0434,-429.6436"/>
</g>
<!-- nid&#45;22&#45;ampin&#45;27&#45;&gt;nid&#45;22 -->
<g id="edge20" class="edge">
<title>nid&#45;22&#45;ampin&#45;27&#45;&gt;nid&#45;22</title>
<path fill="none" stroke="#c8c8c8" d="M880.9531,-560.9541C898.6438,-554.7409 921.7334,-546.5382 942.1076,-539 1017.2624,-511.1938 1104.5359,-477.2515 1153.4367,-458.0818"/>
<polygon fill="#c8c8c8" stroke="#c8c8c8" points="1154.3213,-459.6147 1158.3372,-456.1599 1153.0434,-456.3564 1154.3213,-459.6147"/>
</g>
<!-- nid&#45;22&#45;ampin&#45;29&#45;&gt;nid&#45;22 -->
<g id="edge21" class="edge">
<title>nid&#45;22&#45;ampin&#45;29&#45;&gt;nid&#45;22</title>
<path fill="none" stroke="#c8c8c8" d="M893.0763,-499.2801C957.9891,-487.0483 1083.8348,-463.3347 1149.524,-450.9566"/>
<polygon fill="#c8c8c8" stroke="#c8c8c8" points="1149.944,-452.6584 1154.5334,-450.0127 1149.2958,-449.2189 1149.944,-452.6584"/>
</g>
<!-- nid&#45;23&#45;ampin&#45;24&#45;&gt;nid&#45;23 -->
<g id="edge27" class="edge">
<title>nid&#45;23&#45;ampin&#45;24&#45;&gt;nid&#45;23</title>
<path fill="none" stroke="#c8c8c8" d="M906.6769,-774.1414C973.4315,-780.4308 1085.1723,-790.9587 1147.07,-796.7905"/>
<polygon fill="#c8c8c8" stroke="#c8c8c8" points="1147.0278,-798.5442 1152.17,-797.271 1147.3562,-795.0596 1147.0278,-798.5442"/>
</g>
<!-- nid&#45;23&#45;ampin&#45;25&#45;&gt;nid&#45;23 -->
<g id="edge28" class="edge">
<title>nid&#45;23&#45;ampin&#45;25&#45;&gt;nid&#45;23</title>
<path fill="none" stroke="#c8c8c8" d="M884.9825,-714.2921C947.5304,-731.9714 1083.4692,-770.3946 1151.4078,-789.5975"/>
<polygon fill="#c8c8c8" stroke="#c8c8c8" points="1151.2892,-791.3825 1156.5767,-791.0585 1152.2412,-788.0145 1151.2892,-791.3825"/>
</g>
<!-- nid&#45;23&#45;ampin&#45;26&#45;&gt;nid&#45;23 -->
<g id="edge29" class="edge">
<title>nid&#45;23&#45;ampin&#45;26&#45;&gt;nid&#45;23</title>
<path fill="none" stroke="#c8c8c8" d="M882.4926,-650.6878C900.1209,-656.5837 922.6209,-664.5837 942.1076,-673 1020.7263,-706.9554 1109.1141,-754.6496 1156.7645,-781.1923"/>
<polygon fill="#c8c8c8" stroke="#c8c8c8" points="1156.028,-782.7853 1161.2469,-783.6938 1157.7336,-779.729 1156.028,-782.7853"/>
</g>
<!-- nid&#45;23&#45;ampin&#45;27&#45;&gt;nid&#45;23 -->
<g id="edge30" class="edge">
<title>nid&#45;23&#45;ampin&#45;27&#45;&gt;nid&#45;23</title>
<path fill="none" stroke="#c8c8c8" d="M884.9825,-887.7079C947.5304,-870.0286 1083.4692,-831.6054 1151.4078,-812.4025"/>
<polygon fill="#c8c8c8" stroke="#c8c8c8" points="1152.2412,-813.9855 1156.5767,-810.9415 1151.2892,-810.6175 1152.2412,-813.9855"/>
</g>
<!-- nid&#45;23&#45;ampin&#45;29&#45;&gt;nid&#45;23 -->
<g id="edge31" class="edge">
<title>nid&#45;23&#45;ampin&#45;29&#45;&gt;nid&#45;23</title>
<path fill="none" stroke="#c8c8c8" d="M906.6769,-827.8586C973.4315,-821.5692 1085.1723,-811.0413 1147.07,-805.2095"/>
<polygon fill="#c8c8c8" stroke="#c8c8c8" points="1147.3562,-806.9404 1152.17,-804.729 1147.0278,-803.4558 1147.3562,-806.9404"/>
</g>
<!-- nid&#45;23&#45;ampin&#45;18&#45;&gt;nid&#45;23 -->
<g id="edge32" class="edge">
<title>nid&#45;23&#45;ampin&#45;18&#45;&gt;nid&#45;23</title>
<path fill="none" stroke="#c8c8c8" d="M882.4926,-951.3122C900.1209,-945.4163 922.6209,-937.4163 942.1076,-929 1020.7263,-895.0446 1109.1141,-847.3504 1156.7645,-820.8077"/>
<polygon fill="#c8c8c8" stroke="#c8c8c8" points="1157.7336,-822.271 1161.2469,-818.3062 1156.028,-819.2147 1157.7336,-822.271"/>
</g>
</g>
</svg>
